<svg width="20" height="20" viewBox="0 0 20 20" fill="none" xmlns="http://www.w3.org/2000/svg">
<g clip-path="url(#clip0_4650_51016)">
<path fill-rule="evenodd" clip-rule="evenodd" d="M2.50625 2.5C1.84099 2.50099 1.20334 2.76605 0.733394 3.23693C0.263453 3.70781 -0.000331734 4.34599 3.13102e-07 5.01125V14.9888C3.13102e-07 16.3763 1.1175 17.5 2.50625 17.5H6.25V2.5H2.50625Z" fill="#333333"/>
<path fill-rule="evenodd" clip-rule="evenodd" d="M13.75 2.5V17.5H17.4937C18.159 17.499 18.7967 17.2339 19.2666 16.7631C19.7365 16.2922 20.0003 15.654 20 14.9888V5.0125C20 3.62375 18.8825 2.5 17.4937 2.5H13.75Z" fill="#E25950"/>
<path fill-rule="evenodd" clip-rule="evenodd" d="M6.25 2.5H13.75V17.5H6.25V2.5Z" fill="#FCD669"/>
<path d="M6.25 17.5V16.25H13.75V17.5H6.25ZM6.25 2.5H13.75V3.75H6.25V2.5Z" fill="#A68527" fill-opacity="0.1"/>
</g>
<defs>
<clipPath id="clip0_4650_51016">
<rect width="20" height="20" fill="white"/>
</clipPath>
</defs>
</svg>
