<svg width="20" height="20" viewBox="0 0 20 20" fill="none" xmlns="http://www.w3.org/2000/svg">
<mask id="mask0_4656_51186" style="mask-type:alpha" maskUnits="userSpaceOnUse" x="0" y="3" width="20" height="15">
<rect y="3" width="20" height="14.2857" rx="2.85714" fill="#C4C4C4"/>
</mask>
<g mask="url(#mask0_4656_51186)">
<path d="M-0.953125 3H20.9516V17.2857H-0.953125V3Z" fill="#ECEFF1"/>
<path d="M15.9733 3H20.9516V17.2857H15.9733V3ZM-0.953125 3H4.02523V17.2857H-0.953125V3ZM9.50142 13H10.4971V14.4286H9.50142V13Z" fill="#E25950"/>
<path d="M14.2863 11.5717L13.3339 11.0955L14.2863 9.66695H12.8577L12.8382 8.72123L11.7377 9.27314L11.9053 6.8098L10.9529 7.28599L10.0039 5.85742L9.04818 7.28599L8.0958 6.8098L8.26341 9.25933L7.16246 8.72218C7.16246 8.72218 7.14103 9.66218 7.14342 9.66695H5.71484L6.66722 11.0955L5.71484 11.5717L7.61961 12.5241V13.4765C7.61961 13.4765 9.86818 13.3531 10.0006 13.3531C10.1329 13.3531 12.3815 13.4765 12.3815 13.4765V12.5241L14.2863 11.5717Z" fill="#E25950"/>
</g>
</svg>
