<svg width="20" height="20" viewBox="0 0 20 20" fill="none" xmlns="http://www.w3.org/2000/svg">
<path d="M2.5 2.5H17.5C18.163 2.5 18.7989 2.76339 19.2678 3.23223C19.7366 3.70107 20 4.33696 20 5V15C20 15.663 19.7366 16.2989 19.2678 16.7678C18.7989 17.2366 18.163 17.5 17.5 17.5H2.5C1.83696 17.5 1.20107 17.2366 0.732233 16.7678C0.263392 16.2989 0 15.663 0 15V5C0 4.33696 0.263392 3.70107 0.732233 3.23223C1.20107 2.76339 1.83696 2.5 2.5 2.5V2.5Z" fill="#F6F9FC"/>
<path d="M8.125 11.25C8.125 11.7473 8.32254 12.2242 8.67417 12.5758C9.02581 12.9275 9.50272 13.125 10 13.125C10.4973 13.125 10.9742 12.9275 11.3258 12.5758C11.6775 12.2242 11.875 11.7473 11.875 11.25H13.125C13.1253 11.6605 13.0447 12.067 12.8878 12.4463C12.7309 12.8256 12.5007 13.1702 12.2104 13.4604C11.9202 13.7507 11.5756 13.9809 11.1963 14.1378C10.817 14.2947 10.4105 14.3753 10 14.375C9.1712 14.375 8.37634 14.0458 7.79029 13.4597C7.20424 12.8737 6.875 12.0788 6.875 11.25H8.125Z" fill="#24B47E"/>
<path fill-rule="evenodd" clip-rule="evenodd" d="M7.5 7.5L12.5 6.25V8.75L7.5 10V7.5Z" fill="#F79A59"/>
<path d="M17.5 17.5H2.5C1.83696 17.5 1.20107 17.2366 0.732233 16.7678C0.263392 16.2989 0 15.663 0 15V5C0 4.33696 0.263392 3.70107 0.732233 3.23223C1.20107 2.76339 1.83696 2.5 2.5 2.5H17.5C18.163 2.5 18.7989 2.76339 19.2678 3.23223C19.7366 3.70107 20 4.33696 20 5V15C20 15.663 19.7366 16.2989 19.2678 16.7678C18.7989 17.2366 18.163 17.5 17.5 17.5ZM18.75 5C18.75 4.66848 18.6183 4.35054 18.3839 4.11612C18.1495 3.8817 17.8315 3.75 17.5 3.75H2.5C2.16848 3.75 1.85054 3.8817 1.61612 4.11612C1.3817 4.35054 1.25 4.66848 1.25 5V15C1.25 15.3315 1.3817 15.6495 1.61612 15.8839C1.85054 16.1183 2.16848 16.25 2.5 16.25H17.5C17.8315 16.25 18.1495 16.1183 18.3839 15.8839C18.6183 15.6495 18.75 15.3315 18.75 15V5Z" fill="#EAEEF3"/>
</svg>
