<svg width="20" height="20" viewBox="0 0 20 20" fill="none" xmlns="http://www.w3.org/2000/svg">
<g clip-path="url(#clip0_4650_51106)">
<path fill-rule="evenodd" clip-rule="evenodd" d="M2.49252 2.5C2.16448 2.49967 1.8396 2.56416 1.53655 2.68977C1.23351 2.81539 0.958275 2.99964 0.726661 3.23195C0.495047 3.46426 0.31162 3.74005 0.186919 4.04347C0.0622187 4.34689 -0.00129753 4.67196 2.00873e-05 5V7.5H20V5C20 3.61875 18.8813 2.5 17.5075 2.5H2.49252Z" fill="#45B2E8"/>
<path fill-rule="evenodd" clip-rule="evenodd" d="M0 12.5V15C0 16.3813 1.11875 17.5 2.4925 17.5H17.5075C17.8355 17.5003 18.1604 17.4358 18.4635 17.3102C18.7665 17.1846 19.0417 17.0004 19.2734 16.7681C19.505 16.5357 19.6884 16.26 19.8131 15.9565C19.9378 15.6531 20.0013 15.328 20 15V12.5H0Z" fill="#F6F9FC"/>
<path d="M17.5 17.5H2.5C1.83696 17.5 1.20107 17.2366 0.732233 16.7678C0.263392 16.2989 0 15.663 0 15V12.5H1.25V15C1.25 15.3315 1.3817 15.6495 1.61612 15.8839C1.85054 16.1183 2.16848 16.25 2.5 16.25H17.5C17.8315 16.25 18.1495 16.1183 18.3839 15.8839C18.6183 15.6495 18.75 15.3315 18.75 15V12.5H20V15C20 15.663 19.7366 16.2989 19.2678 16.7678C18.7989 17.2366 18.163 17.5 17.5 17.5Z" fill="#EAEEF3"/>
<path fill-rule="evenodd" clip-rule="evenodd" d="M0 7.5H20V12.5H0V7.5Z" fill="#333333"/>
</g>
<defs>
<clipPath id="clip0_4650_51106">
<rect width="20" height="20" fill="white"/>
</clipPath>
</defs>
</svg>
