<svg width="20" height="20" viewBox="0 0 20 20" fill="none" xmlns="http://www.w3.org/2000/svg">
<path d="M0 7.5H20V12.5H0V7.5Z" fill="#E25950"/>
<path d="M0 15.5V12.5H20V15.5C20 16.605 19.1475 17.5 18.095 17.5H1.905C0.8525 17.5 0 16.605 0 15.5Z" fill="#FCD669"/>
<path d="M18.75 12.5V15C18.75 15.3315 18.6183 15.6495 18.3839 15.8839C18.1495 16.1183 17.8315 16.25 17.5 16.25H2.5C2.16848 16.25 1.85054 16.1183 1.61612 15.8839C1.3817 15.6495 1.25 15.3315 1.25 15V12.5H0V15C0 16.74 0.595 17.5 2.5 17.5H17.5C19.4737 17.5 20 16.5837 20 15V12.5H18.75Z" fill="#A68527" fill-opacity="0.1"/>
<path d="M20 4.5V7.5H0V4.5C0 3.395 0.8525 2.5 1.905 2.5H18.095C19.1475 2.5 20 3.395 20 4.5Z" fill="#333333"/>
</svg>
