<svg width="107" height="106" viewBox="0 0 107 106" fill="none" xmlns="http://www.w3.org/2000/svg">
<path d="M24.5234 10.7716C44.5157 -2.70635 71.9208 -0.684659 89.4421 17.0613" stroke="white" stroke-width="3"/>
<path d="M10.5953 81.7548C-1.08551 64.2335 -0.860879 41.3211 11.2692 24.0244" stroke="white" stroke-width="3"/>
<path d="M91.464 7.40332V18.8595H80.0078" stroke="white" stroke-width="3"/>
<path d="M17.5555 24.2488C22.2699 24.2488 26.0916 20.4271 26.0916 15.7128C26.0916 10.9985 22.2699 7.17676 17.5555 7.17676C12.8412 7.17676 9.01953 10.9985 9.01953 15.7128C9.01953 20.4271 12.8412 24.2488 17.5555 24.2488Z" stroke="white" stroke-width="3"/>
<path d="M82.4733 95.4577C62.4811 108.936 35.076 106.914 17.5547 89.168" stroke="white" stroke-width="3"/>
<path d="M96.4044 24.4746C108.085 41.9959 107.861 64.9084 95.7305 82.205" stroke="white" stroke-width="3"/>
<path d="M15.5391 98.6037V87.1475H26.9953" stroke="white" stroke-width="3"/>
<path d="M89.4462 99.0515C94.1605 99.0515 97.9822 95.2298 97.9822 90.5155C97.9822 85.8012 94.1605 81.9795 89.4462 81.9795C84.7319 81.9795 80.9102 85.8012 80.9102 90.5155C80.9102 95.2298 84.7319 99.0515 89.4462 99.0515Z" stroke="white" stroke-width="3"/>
<path d="M81.9971 53.6656C81.9971 48.0615 80.3354 42.5834 77.2219 37.9238C74.1085 33.2642 69.6832 29.6325 64.5058 27.4879C59.3283 25.3433 53.6312 24.7822 48.1349 25.8755C42.6385 26.9688 37.5898 29.6674 33.6271 33.63C29.6645 37.5927 26.9659 42.6414 25.8726 48.1378C24.7793 53.6341 25.3404 59.3313 27.485 64.5087C29.6295 69.6862 33.2613 74.1114 37.9208 77.2248C42.5804 80.3383 48.0586 82.0001 53.6626 82.0001C61.1699 81.9758 68.3628 78.9828 73.6713 73.6743C78.9798 68.3658 81.9729 61.1729 81.9971 53.6656V53.6656ZM77.4105 60.7492H67.3836C67.9787 56.0455 67.9787 51.2856 67.3836 46.5819H77.4105C78.8036 51.2016 78.8036 56.1295 77.4105 60.7492V60.7492ZM53.6626 78.4583C49.9774 78.4583 45.9928 72.9685 44.1245 64.291H63.2007C61.3324 72.9685 57.3479 78.4583 53.6626 78.4583ZM43.51 60.7492C42.8797 56.0478 42.8797 51.2833 43.51 46.5819H63.8153C64.4456 51.2833 64.4456 56.0478 63.8153 60.7492H43.51ZM28.8699 53.6656C28.8804 51.2668 29.2323 48.8816 29.9148 46.5819H39.9417C39.3466 51.2856 39.3466 56.0455 39.9417 60.7492H29.9148C29.2341 58.4491 28.8823 56.0642 28.8699 53.6656V53.6656ZM53.6626 28.8729C57.3479 28.8729 61.3324 34.3627 63.2007 43.0401H44.1245C45.9928 34.3627 49.9774 28.8729 53.6626 28.8729ZM76.0292 43.0401H66.8205C66.0541 38.4615 64.3176 34.0996 61.7274 30.2471C64.8391 31.3271 67.7056 33.014 70.1606 35.21C72.6157 37.406 74.6104 40.0675 76.0292 43.0401V43.0401ZM45.5944 30.2471C43.0041 34.0996 41.2676 38.4615 40.5013 43.0401H31.2925C32.7114 40.0675 34.7061 37.406 37.1611 35.21C39.6161 33.014 42.4826 31.3271 45.5944 30.2471ZM31.2961 64.291H40.5048C41.2711 68.8697 43.0077 73.2315 45.5979 77.084C42.4861 76.0041 39.6197 74.3172 37.1646 72.1211C34.7096 69.9251 32.7149 67.2637 31.2961 64.291V64.291ZM61.7309 77.084C64.3211 73.2315 66.0577 68.8697 66.824 64.291H76.0327C74.6139 67.2637 72.6192 69.9251 70.1642 72.1211C67.7092 74.3172 64.8427 76.0041 61.7309 77.084V77.084Z" fill="#A30018"/>
<path d="M57.5623 25.2788C42.0607 23.0904 27.6534 34.0327 25.2826 49.3518C23.0941 64.8534 33.854 79.2607 49.3556 81.6315C64.8571 83.82 79.2644 73.0601 81.4529 57.5585C83.8237 42.057 73.0638 27.6497 57.5623 25.2788Z" fill="white"/>
<path d="M79.2641 65.0361C78.8994 65.0361 78.3522 65.0361 78.3522 65.2185C78.3522 65.4009 77.8051 65.5832 77.6228 65.5832C77.4404 65.5832 77.0757 66.1304 76.8933 66.3127C76.7109 66.4951 76.3462 66.3127 76.1638 66.4951C75.9814 66.4951 75.6167 66.6775 75.6167 66.8598C75.6167 67.0422 75.4343 67.0422 75.4343 66.8598C75.4343 66.8598 75.4343 66.8598 75.2519 67.0422C74.8872 67.2246 74.8872 67.2246 74.8872 67.2246C74.7048 67.407 74.3401 67.9541 74.1577 67.9541C73.9753 67.9541 73.793 68.6836 73.793 69.0483C73.793 69.413 73.793 69.7778 73.9753 69.9602C73.9753 69.9602 73.9753 69.9602 73.9753 70.1425C73.9753 70.6896 73.9753 70.6896 73.9753 70.6896C73.793 71.0544 74.1577 71.4191 74.1577 71.4191C74.1577 71.4191 74.8872 71.4191 75.2519 71.4191C75.4343 71.4191 75.4343 71.4191 75.6167 71.2368C77.0756 69.413 78.3522 67.2246 79.2641 65.0361Z" fill="#A30018"/>
<path d="M32.7609 59.019C32.7609 59.019 33.1257 59.7485 33.308 59.9309C33.4904 60.1132 33.8551 61.0251 33.8551 61.3898C33.8551 61.7546 33.8551 62.1193 33.6728 62.3017C33.6728 62.484 33.6728 62.6664 33.6728 62.6664C33.6728 62.8488 33.308 63.5783 33.308 63.943C33.308 64.3078 32.7609 65.2196 32.5785 65.7667C32.5785 66.3138 32.5785 67.0433 32.7609 67.0433C32.9433 67.0433 32.7609 67.5904 32.5785 67.5904C32.3962 67.5904 32.2138 67.9552 32.2138 68.1376C32.2138 68.1376 32.2138 68.5023 32.2138 68.6847C32.2138 68.867 32.2138 69.9613 32.2138 70.1436C32.2138 70.5084 32.5785 71.0555 32.5785 71.4202C32.5785 71.6026 32.5785 72.1497 32.7609 72.1497V72.3321L33.1257 72.5145C33.1257 72.5145 33.8551 72.6968 34.0375 72.6968C34.2199 72.6968 34.0375 72.5145 34.0375 72.3321C34.0375 72.1497 34.0375 71.785 33.8551 71.6026C33.6728 71.6026 33.8551 70.8731 33.8551 70.8731C34.0375 70.6907 34.4023 70.5084 34.4023 70.5084C34.4023 70.326 34.5846 69.9613 34.4023 69.7789C34.4023 69.7789 34.5846 69.0494 34.5846 68.6847C34.5846 68.3199 35.1317 68.1376 35.3141 67.9552C35.3141 67.7728 36.0436 67.5904 36.226 67.4081C36.4083 67.2257 36.5907 66.6786 36.5907 66.4962C36.5907 66.3138 36.9555 66.3138 36.9555 66.3138C37.1378 66.3138 37.3202 66.3138 37.3202 66.3138C37.3202 66.3138 37.5026 65.9491 37.6849 65.9491C37.8673 65.9491 38.0497 65.2196 38.232 65.0372C38.4144 64.8549 38.5968 64.4901 38.5968 64.3078C38.5968 64.1254 38.9615 63.7606 38.9615 63.7606C39.1439 63.5783 39.691 63.3959 39.8734 63.3959C40.0558 63.3959 40.2381 62.3017 40.4205 61.9369C40.6029 61.5722 40.7852 61.2075 40.7852 61.0251C40.7852 60.8427 40.9676 60.8427 41.15 60.8427C41.15 60.8427 41.3324 60.2956 41.5147 60.2956C41.6971 60.1132 42.0618 59.7485 42.0618 59.7485C42.0618 59.5661 42.2442 59.3837 42.2442 59.2014C42.2442 59.2014 42.2442 59.2014 42.2442 59.019C42.2442 58.6543 42.2442 58.6543 42.2442 58.6543C42.2442 58.2895 41.8795 57.9248 41.8795 57.9248C41.6971 57.9248 41.5147 57.56 41.3324 57.56C41.15 57.3777 40.6029 57.3777 40.6029 57.3777C40.4205 57.3777 40.0558 57.0129 39.8734 56.8305C39.691 56.8305 39.1439 56.6482 39.1439 56.4658C39.1439 56.4658 38.9615 55.5539 38.5968 55.3716C38.232 55.0068 37.6849 54.4597 37.5026 54.2773C37.5026 54.095 36.7731 53.5479 36.5907 53.3655C36.4083 53.1831 36.0436 53.1831 36.0436 53.1831C36.0436 53.1831 35.6789 52.8184 35.6789 52.636C35.4965 52.4536 35.1317 52.2713 35.1317 52.4536C35.1317 52.636 34.767 52.4536 34.767 52.2713C34.767 52.0889 34.4023 52.2713 34.4023 52.2713C34.2199 52.2713 33.8551 52.8184 33.6728 53.0007C33.4904 53.1831 33.308 52.8184 33.1257 52.8184C32.9433 52.8184 32.5785 52.8184 32.3962 52.8184C32.2138 52.8184 32.0314 52.0889 32.2138 51.9065C32.3962 51.5418 32.0314 50.8123 31.8491 50.8123C31.6667 50.8123 31.6667 50.0828 31.6667 49.9004C31.6667 49.7181 31.3019 49.3533 31.1196 49.3533C30.9372 49.3533 30.5725 49.5357 30.5725 49.7181C30.5725 49.9004 29.2959 49.3533 29.4782 48.6238C29.6606 47.8944 30.3901 47.1649 30.5725 47.1649C30.7548 47.1649 31.4843 47.1649 31.6667 47.3472C31.8491 47.5296 32.0314 47.3472 32.0314 47.3472C32.0314 47.3472 32.7609 47.5296 32.9433 47.5296C33.1257 47.712 33.308 48.4415 33.4904 48.6238C33.6728 48.8062 33.8551 48.2591 33.8551 48.0767C33.8551 47.8944 33.8551 47.5296 33.8551 47.5296C33.8551 47.3472 34.4023 46.6178 34.5846 46.4354C34.9494 46.253 35.3141 45.8883 35.3141 45.7059C35.3141 45.5235 35.4965 45.5235 35.6789 45.5235C35.6789 45.5235 35.8612 44.794 35.8612 44.6117C36.0436 44.4293 36.5907 44.2469 36.7731 44.2469C36.9554 44.2469 37.1378 43.6998 37.1378 43.6998C37.1378 43.5175 37.6849 43.1527 38.0497 43.1527C38.4144 43.1527 38.5968 43.3351 38.4144 43.3351C38.4144 43.3351 38.9615 43.1527 39.1439 43.1527C39.3263 42.9703 39.1439 42.6056 39.1439 42.6056C38.9615 42.4232 39.1439 42.0585 39.3263 42.0585C39.5086 42.0585 39.691 41.6937 39.691 41.6937C39.691 41.6937 40.2381 41.8761 40.6029 41.6937C40.7852 41.5114 40.6029 42.0585 40.4205 42.4232C40.2381 42.6056 40.4205 42.9703 40.6029 42.9703C40.7852 42.9703 40.7852 43.1527 40.7852 43.1527H41.15C41.3324 43.3351 41.5147 42.9703 41.5147 42.788C41.5147 42.6056 41.15 42.2408 41.15 42.0585C41.15 41.8761 41.15 40.9643 41.15 40.7819C41.15 40.5995 40.9676 40.2348 40.7852 40.2348C40.7852 40.2348 40.6029 39.6877 40.4205 39.5053C40.2381 39.3229 40.2381 39.1405 40.2381 38.9582C40.2381 38.7758 39.8734 38.2287 39.691 38.0463C39.691 37.8639 39.5086 37.8639 39.5086 37.8639C39.5086 38.0463 39.1439 37.8639 38.9615 37.8639C38.7792 37.8639 38.7792 37.3168 38.7792 37.1345C38.7792 36.9521 38.232 36.7697 38.0497 36.5873C38.0497 36.405 37.5026 36.405 37.5026 36.405C37.5026 36.2226 37.1378 36.2226 37.1378 36.2226C37.1378 36.2226 36.9554 37.6816 36.7731 38.0463C36.5907 38.4111 36.226 38.7758 36.226 38.5934C36.0436 38.5934 36.226 38.7758 36.226 38.7758C36.226 38.7758 35.8612 39.1405 35.8612 39.5053C35.8612 39.87 35.4965 39.5053 35.4965 39.1405C35.4965 38.9582 35.3141 38.4111 35.1317 38.5934C35.1317 38.5934 34.9494 38.4111 34.767 38.4111C34.5846 38.4111 34.2199 38.0463 34.0375 37.8639C33.8551 37.6816 33.8551 36.9521 33.6728 36.9521C33.4904 36.9521 33.6728 36.7697 33.6728 36.7697C33.6728 36.5873 34.2199 36.405 34.4023 36.2226C34.5846 36.0402 35.1317 35.4931 35.3141 35.4931C35.4965 35.3107 35.6789 35.1284 35.6789 34.946C35.6789 34.946 36.5907 34.7636 36.7731 34.7636C36.9554 34.7636 37.3202 34.2165 37.3202 34.0341C37.3202 33.8518 37.3202 33.487 37.1378 33.487C36.9554 33.487 37.5026 33.487 37.5026 33.487C37.6849 33.487 38.0497 33.487 38.232 33.487C38.4144 33.6694 38.7792 33.8518 38.9615 34.0341C38.9615 34.0341 38.9615 34.0341 38.7792 34.3989C38.5968 35.1284 38.5968 35.1284 38.5968 35.1284C37.8673 35.3107 37.6849 35.6755 37.8673 35.6755C38.0497 35.6755 39.1439 36.2226 39.3263 36.5873C39.5086 36.7697 39.691 36.405 39.8734 36.2226C40.0558 36.0402 40.0558 35.4931 40.0558 35.4931C40.0558 35.3107 40.4205 35.4931 40.4205 35.6755C40.6029 35.8579 40.6029 35.6755 40.7852 35.4931C40.9676 35.4931 40.9676 35.1284 40.9676 34.946C40.9676 34.946 40.7852 34.7636 40.7852 34.5813C40.7852 34.3989 40.4205 34.2165 40.2381 34.0341C40.0558 33.8518 40.0558 33.6694 40.2381 33.487V32.9399C40.2381 32.7576 39.691 32.5752 39.5086 32.5752C39.3263 32.5752 39.1439 32.2104 39.1439 32.0281C39.1439 32.0281 38.4144 31.8457 38.232 31.8457C38.0497 31.8457 37.8673 31.2986 37.5026 31.481C37.1378 31.6633 36.9555 31.2986 36.9555 31.1162C36.7731 31.1162 36.226 31.6633 36.0436 32.0281C36.0436 32.5752 36.226 32.9399 36.226 32.9399C36.4083 32.9399 36.226 33.3047 36.0436 33.487C35.8612 33.6694 35.6789 33.3047 35.8612 33.3047C36.0436 33.3047 35.6789 32.7576 35.4965 32.3928C35.4965 32.2104 35.1317 32.0281 34.9494 32.0281C34.767 32.2104 34.5846 32.2104 34.5846 32.3928C34.5846 32.5752 34.5846 32.7576 34.5846 32.9399C34.4023 33.1223 34.2199 33.3047 34.2199 33.1223L34.0375 32.9399C30.0253 36.5873 27.1074 41.329 25.6484 46.8001C25.8308 46.9825 25.8308 47.1649 25.8308 47.3472C25.8308 47.5296 26.1956 47.8944 26.3779 47.8944L26.5603 47.3472C26.5603 47.1649 26.7427 47.1649 26.7427 47.1649C26.7427 47.3472 27.1074 47.712 27.1074 47.8944C27.2898 48.0767 27.2898 49.171 27.2898 49.3533C27.4722 49.5357 28.5664 50.2652 28.9311 50.4476C29.2959 50.6299 29.843 51.177 29.843 51.177C29.843 51.3594 30.3901 51.5418 30.5725 51.5418C30.7548 51.5418 30.9372 52.0889 30.9372 52.0889C31.1196 52.2713 31.1196 52.4536 31.1196 52.4536C31.1196 52.4536 31.8491 52.8184 31.8491 53.0007C32.0314 53.1831 32.2138 53.1831 32.3962 53.1831C32.3962 53.1831 32.5785 53.5479 32.5785 53.7302C32.5785 53.9126 32.5785 54.2773 32.5785 54.2773C32.5785 54.2773 32.3962 55.0068 32.2138 55.1892C32.0314 55.3716 31.6667 56.2834 31.6667 56.4658C31.6667 56.6482 32.0314 57.1953 32.0314 57.1953C32.2138 57.1953 32.0314 57.56 32.0314 57.56C31.8491 57.56 31.8491 58.4719 32.0314 58.6543C32.5785 58.4719 32.7609 59.019 32.7609 59.019Z" fill="#A30018"/>
<path d="M38.2363 30.2038C38.6011 30.2038 39.1482 30.2038 39.1482 30.0215V29.6567H39.3305C39.5129 29.6567 39.6953 28.9272 39.8777 28.9272C40.06 28.7449 40.7895 28.5625 40.9719 28.5625C41.1542 28.5625 41.7014 28.1977 41.7014 28.1977C41.8837 28.1977 42.0661 27.833 42.0661 27.833C42.0661 27.833 42.6132 27.4683 42.7956 27.4683C42.978 27.4683 43.1603 27.1035 43.1603 27.1035C43.1603 27.1035 41.8837 27.4683 40.6071 28.0154C39.3305 28.7449 38.0539 29.4743 36.7773 30.3862C37.5068 30.2038 38.0539 30.2038 38.2363 30.2038Z" fill="#A30018"/>
<path d="M53.5558 68.1362C53.9206 67.9538 54.65 67.2244 54.8324 67.042C55.0148 66.8596 55.3795 66.1301 55.3795 66.1301C55.3795 65.9478 55.7443 65.7654 55.9266 65.7654C56.109 65.7654 56.6561 64.3064 57.0209 63.9417C57.3856 63.5769 57.9327 62.118 58.1151 61.5709C58.1151 61.0237 58.4798 59.9295 58.6622 59.7471C58.8446 59.5648 59.2093 59.0177 59.3917 59.0177C59.5741 59.0177 60.4859 57.9234 60.8507 57.5587C61.2154 57.194 61.5801 56.2821 61.5801 56.0997C61.5801 55.9174 61.033 55.735 60.8507 55.735C60.6683 55.735 60.3035 55.9174 60.1212 55.735C59.9388 55.735 59.7564 54.8231 59.5741 54.6408C59.3917 54.4584 59.3917 53.3642 59.2093 53.1818C59.027 52.9994 58.8446 52.4523 58.6622 52.2699C58.4798 52.0876 58.6622 51.5404 58.6622 51.5404C58.6622 51.3581 58.8446 51.7228 58.8446 51.9052C58.8446 52.0876 59.3917 52.9994 59.3917 53.3642C59.5741 53.7289 59.9388 54.6408 59.9388 55.0055C59.9388 55.3702 61.033 55.3702 61.5801 55.1879C61.9449 55.0055 62.492 54.8231 62.492 54.8231C62.492 54.6408 63.0391 54.6408 63.2215 54.4584C63.4039 54.276 63.5862 53.7289 63.7686 53.7289C63.951 53.5465 63.7686 52.9994 63.7686 52.817C63.5862 52.6347 63.2215 52.4523 63.0391 52.4523C62.8567 52.4523 62.6744 51.9052 62.6744 51.7228C62.6744 51.5404 62.3096 51.1757 62.1273 51.1757C62.1273 50.9933 62.3096 50.811 62.3096 50.811C62.3096 50.811 63.0391 51.3581 63.2215 51.7228C63.4039 52.0876 63.5862 52.6347 63.5862 52.6347C63.5862 52.817 64.3157 52.817 64.3157 52.817C64.4981 52.817 64.6805 52.817 64.6805 52.9994C64.6805 52.9994 64.6805 52.9994 64.8628 52.9994C65.5923 52.9994 65.5923 52.9994 65.5923 52.9994C65.7747 53.3642 65.9571 53.7289 65.9571 53.7289C65.9571 53.7289 66.1394 54.0936 66.3218 54.0936C66.5042 54.0936 66.5042 54.6408 66.5042 54.6408C66.5042 54.8231 66.8689 55.5526 66.8689 55.735C66.8689 56.0997 67.2337 56.6468 67.2337 56.8292C67.2337 57.0116 67.2337 57.3763 67.2337 57.5587C67.2337 57.7411 67.416 57.9234 67.5984 57.9234C67.7808 57.9234 68.1455 57.0116 68.3279 56.6468C68.5103 56.2821 68.6926 56.0997 68.875 56.0997L69.0574 55.9174C69.0574 55.9174 69.4221 55.9174 69.4221 55.735C69.4221 55.735 69.6045 55.0055 69.7868 55.0055C69.9692 55.0055 70.5163 54.6408 70.6987 54.6408C70.8811 54.6408 71.2458 55.0055 71.4282 55.1879C71.4282 55.3702 71.6106 55.9174 71.4282 55.9174C71.4282 55.9174 71.6106 56.4645 71.7929 56.4645C71.9753 56.4645 71.9753 56.8292 71.9753 57.0116C71.9753 57.194 72.1577 57.5587 72.34 57.5587C72.34 57.7411 72.34 58.1058 72.34 58.1058C72.34 58.1058 72.1577 58.6529 72.34 58.8353C72.34 59.0177 73.0695 59.7471 73.2519 60.1119C73.4343 60.2943 73.799 59.7471 73.6166 59.3824C73.4343 59.2 73.0695 58.6529 73.0695 58.4705C73.0695 58.2882 73.0695 57.7411 73.0695 57.5587C73.0695 57.3763 73.4343 57.7411 73.6166 57.9234C73.799 58.1058 73.9814 58.2882 73.9814 58.4705C73.9814 58.4705 75.0756 58.1058 75.0756 57.5587C75.258 57.0116 75.6227 56.2821 75.6227 56.0997C75.6227 55.9174 75.6227 55.735 75.4404 55.735C75.4404 55.735 75.6227 55.3702 75.9875 55.3702C76.1698 55.3702 77.0817 54.8231 77.2641 54.4584C77.4464 54.0936 77.8112 53.9113 77.8112 53.9113C77.8112 53.9113 78.1759 53.1818 78.1759 52.9994C78.1759 52.6347 78.1759 52.2699 78.1759 52.0876C78.1759 51.9052 77.9935 51.5404 77.9935 51.3581C77.9935 51.1757 77.9935 50.811 77.9935 50.811L78.3583 50.6286C78.3583 50.6286 78.723 50.2638 78.723 50.0815C78.723 49.8991 78.9054 50.2638 78.9054 50.4462C79.0878 50.6286 79.0878 51.3581 79.2701 51.3581C79.4525 51.5404 80.182 50.6286 80.182 50.0815C80.182 49.5344 80.5467 48.8049 80.7291 48.8049C80.9115 48.8049 81.2762 48.4401 81.4586 48.0754C80.5467 43.6985 78.723 39.6863 76.1698 36.2213C76.1698 36.2213 76.1698 36.2213 75.9875 36.2213C75.8051 36.2213 75.8051 36.2213 75.8051 36.2213C75.4404 36.0389 75.258 35.6742 75.258 35.4918V35.3094C75.0756 35.127 74.8932 34.7623 74.7109 34.5799C74.5285 34.5799 74.3461 34.5799 74.1638 34.5799C73.9814 34.5799 73.4343 34.2152 73.2519 34.2152C73.2519 34.0328 72.8872 34.2152 72.7048 34.3976C72.7048 34.5799 72.1577 34.5799 71.9753 34.7623C71.9753 34.9447 71.6106 34.9447 71.6106 34.7623C71.6106 34.7623 71.0634 34.9447 70.6987 34.9447C70.5163 34.9447 69.9692 35.127 69.7868 35.127C69.6045 35.127 69.4221 35.3094 69.2397 35.4918C69.2397 35.6742 68.875 35.6742 68.6926 35.6742C68.5103 35.6742 68.5103 36.2213 68.6926 36.2213C68.875 36.2213 68.5103 36.0389 68.3279 36.0389C68.1455 35.8565 67.9631 36.2213 67.7808 36.2213C67.7808 36.4036 67.5984 36.2213 67.5984 36.0389C67.5984 35.8565 67.2337 35.6742 67.0513 35.8565C67.0513 36.0389 66.6865 35.8565 66.5042 35.6742C66.3218 35.6742 65.7747 36.0389 65.5923 36.2213C65.4099 36.4036 64.4981 36.4036 64.3157 36.2213C64.1333 36.0389 63.951 36.586 64.1333 36.586C64.3157 36.586 63.7686 36.586 63.4039 36.586C63.0391 36.586 62.1273 36.7684 61.9449 36.9508C61.7625 37.1331 61.5801 36.9508 61.5801 36.7684C61.5801 36.586 61.2154 36.586 61.2154 36.4036C61.2154 36.4036 60.8507 36.9508 60.6683 37.1331C60.4859 37.3155 60.3036 36.586 59.9388 36.4036C59.5741 36.2213 59.027 35.8565 58.8446 35.6742C58.6622 35.6742 58.2975 35.127 58.2975 35.127C58.2975 34.9447 57.7504 34.7623 57.568 34.7623C57.3856 34.7623 56.8385 34.9447 56.6561 35.127C56.4738 35.3094 56.2914 35.127 56.2914 35.127C56.2914 35.127 55.5619 35.6742 55.1972 35.8565C55.0148 36.0389 54.4677 36.7684 54.2853 36.9508C54.1029 37.1331 53.9206 37.1331 53.9206 37.1331L53.7382 37.3155C53.7382 37.3155 53.0087 37.6802 52.8263 37.8626C52.644 38.2274 52.8263 38.9568 52.644 39.1392C52.644 39.3216 52.8263 39.8687 53.0087 39.8687C53.1911 39.8687 53.0087 40.2334 53.0087 40.4158C53.0087 40.5982 53.0087 40.5982 53.0087 40.7806C53.0087 40.9629 52.4616 40.9629 52.2792 40.9629C52.0968 40.9629 51.9145 41.3277 51.7321 41.3277C51.7321 41.51 51.185 41.51 51.0026 41.51C51.0026 41.3277 51.185 41.3277 51.185 41.1453C51.3674 40.9629 51.185 40.7805 51.185 40.5982C51.185 40.5982 51.185 39.6863 51.185 39.504C51.185 39.3216 50.8203 38.9568 50.8203 38.9568C50.8203 38.9568 50.8203 38.7745 51.0026 38.5921C51.0026 38.5921 50.6379 38.4097 50.4555 38.4097C50.2731 38.4097 50.0908 39.3216 50.0908 39.504C50.0908 39.6863 50.2731 40.0511 50.2731 40.0511C50.2731 40.0511 50.2731 40.4158 50.0908 40.4158C49.9084 40.4158 49.726 40.9629 49.726 41.1453C49.726 41.3277 49.5437 41.51 49.5437 41.51C49.3613 41.51 50.0908 41.6924 50.4555 41.6924C50.8203 41.6924 51.0026 41.8748 51.0026 41.8748C51.0026 41.8748 50.4555 41.8748 50.2731 42.0571C50.0908 42.2395 49.726 42.4219 49.726 42.4219C49.726 42.4219 49.726 42.7866 49.9084 42.7866C50.0908 42.7866 50.0908 43.3337 50.2731 43.5161C50.4555 43.6985 50.2731 43.8809 50.2731 44.0632C50.2731 44.0632 49.5437 43.8809 49.1789 43.8809C48.8142 43.8809 48.4494 44.428 48.4494 44.6103C48.4494 44.7927 48.4494 45.5222 48.4494 45.7046C48.4494 45.8869 48.9965 46.0693 49.1789 46.2517C49.3613 46.4341 49.9084 46.4341 49.9084 46.4341C50.0908 46.4341 50.4555 45.8869 50.6379 45.7046C50.8203 45.3398 51.3674 44.9751 51.5497 44.7927C51.7321 44.6103 52.2792 44.7927 52.4616 44.6103C52.644 44.6103 52.4616 45.1575 52.4616 45.5222C52.4616 45.8869 53.1911 45.8869 53.0087 45.5222C53.0087 45.1575 53.1911 45.1575 53.1911 45.1575C53.1911 45.3398 53.7382 45.5222 53.9206 45.7046C53.9206 45.8869 53.9206 46.2517 53.7382 46.2517C53.5558 46.2517 53.5558 46.6164 53.7382 46.6164C53.9206 46.6164 54.1029 46.2517 54.2853 46.0693C54.4677 46.0693 54.65 45.7046 54.4677 45.7046C54.4677 45.7046 54.65 45.3398 54.65 45.5222C54.65 45.7046 54.4677 44.7927 54.2853 44.6103C54.1029 44.2456 54.2853 44.428 54.65 44.9751C54.65 44.9751 54.65 44.9751 54.8324 45.5222L55.0148 45.8869C55.0148 46.0693 55.0148 46.0693 55.0148 46.0693C55.0148 46.2517 55.0148 46.6164 55.0148 46.7988C55.0148 46.9812 55.1972 47.1635 55.3795 47.1635C55.5619 47.1635 55.5619 47.3459 55.5619 47.3459C55.5619 47.3459 55.5619 47.7107 55.7443 47.7107C55.9266 47.7107 56.109 47.3459 55.9266 47.3459C55.7443 47.3459 55.9266 46.7988 55.9266 46.4341C55.9266 46.2517 56.109 46.0693 56.109 46.0693C56.109 46.0693 56.109 46.6164 55.9266 46.6164C55.9266 46.7988 55.9266 46.9812 55.9266 47.1635C55.9266 47.1635 55.9266 47.1635 56.109 47.3459C56.4738 47.7107 56.4738 47.7107 56.4738 47.7107C57.0209 47.7107 57.7504 47.893 57.568 47.893C57.568 48.0754 57.9327 48.0754 57.9327 47.893C57.9327 47.7107 57.9327 47.893 57.9327 48.0754C57.9327 48.2578 57.568 48.6225 57.3856 48.8049C57.3856 48.9873 56.109 48.6225 55.5619 48.6225C55.0148 48.4401 54.2853 48.6225 54.2853 48.8049C54.2853 48.9873 53.5558 48.2578 53.1911 48.0754C52.8263 47.893 52.644 47.3459 52.644 47.1635C52.644 47.1635 52.8263 46.9812 52.644 46.7988C52.644 46.6164 51.7321 46.6164 51.5497 46.6164C51.3674 46.6164 50.0908 46.6164 49.726 46.7988C49.3613 46.7988 48.9965 46.6164 48.8142 46.6164C48.6318 46.6164 48.2671 46.9812 48.0847 46.9812C47.9023 46.9812 47.5376 47.5283 47.3552 48.2578C47.3552 48.2578 47.3552 48.2578 46.9905 48.6225C46.8081 48.8049 46.8081 48.8049 46.8081 48.8049C46.4433 48.9873 45.7139 50.0815 45.5315 50.2638C45.3491 50.4462 44.9844 51.9052 44.9844 52.4523C44.9844 52.9994 45.1667 54.0936 45.3491 54.4584C45.3491 54.8231 46.0786 55.5526 46.261 55.735C46.4433 55.9174 47.3552 56.0997 47.5376 56.0997C47.7199 56.0997 48.0847 55.9174 48.2671 55.5526C48.2671 55.5526 48.2671 55.5526 48.6318 55.735C48.8142 55.735 48.8142 55.735 48.8142 55.735C48.8142 55.9174 49.3613 56.2821 49.5437 56.2821C49.726 56.4645 50.0908 56.4645 50.2731 56.2821C50.4555 56.2821 50.4555 57.3763 50.2731 57.5587C50.0908 57.9234 50.2731 59.0177 50.2731 59.2C50.2731 59.5648 50.6379 60.4766 50.4555 60.8414C50.4555 61.2061 50.0908 62.118 49.9084 62.4827C49.726 62.8475 50.0908 63.9417 50.2731 64.3064C50.2731 64.6712 50.2731 65.4007 50.2731 65.583C50.2731 65.7654 50.6379 66.8596 50.6379 67.4067C51.9145 67.9539 53.1911 68.3186 53.5558 68.1362Z" fill="#A30018"/>
<path d="M78.5383 58.6526C78.5383 58.6526 78.9031 58.4702 79.0854 58.4702C79.2678 58.4702 79.4502 57.9231 79.2678 57.9231C79.0854 57.9231 78.9031 57.376 78.9031 57.376C78.7207 57.376 78.5383 57.5583 78.5383 57.7407C78.5383 57.9231 78.1736 57.9231 77.9912 58.1055C77.9912 58.2878 77.8088 58.2878 77.9912 58.2878C78.1736 58.2878 78.5383 58.6526 78.5383 58.6526Z" fill="#A30018"/>
<path d="M77.8052 61.5713C77.9875 61.5713 77.8052 61.0242 77.6228 60.8418C77.4404 60.8418 76.7109 61.3889 76.7109 61.936C76.7109 62.3008 76.8933 62.3008 76.8933 62.3008C76.8933 62.3008 77.258 62.4831 77.4404 62.4831C77.6228 62.4831 77.6228 62.4831 77.4404 62.3008C77.4404 62.1184 77.6228 61.5713 77.8052 61.5713Z" fill="#A30018"/>
<path d="M76.7148 60.8428C76.7148 60.6604 76.8971 60.1133 76.8971 59.9309C76.8971 59.7485 76.7147 59.3838 76.5324 59.3838C76.35 59.3838 75.6205 60.478 75.2558 60.6604C74.891 60.8428 74.5263 61.5722 74.7087 61.7546C74.7087 61.937 75.6205 62.1194 75.8029 62.3017C75.9853 62.4841 76.1676 62.3017 76.1676 62.3017C76.35 62.3017 76.1676 62.3017 76.1676 62.1194C76.1676 62.1194 76.5324 61.7546 76.5324 61.5722C76.5324 61.3899 76.5324 61.0251 76.7148 60.8428Z" fill="#A30018"/>
<path d="M73.9795 62.665C73.6147 62.4827 73.25 62.665 73.25 62.665C73.25 62.8474 74.3442 63.2122 74.8913 63.3945C75.2561 63.5769 75.6208 63.5769 75.4385 63.5769C75.4385 63.3945 74.3442 62.8474 73.9795 62.665Z" fill="#A30018"/>
<path d="M77.8022 54.8232C77.9846 54.6409 77.8022 54.0938 77.6199 54.0938C77.4375 54.2761 77.4375 54.6409 77.4375 54.8232C77.6199 55.0056 77.6199 55.0056 77.8022 54.8232Z" fill="#A30018"/>
<path d="M78.3531 56.282C78.5355 56.0997 78.3531 55.9173 77.9884 55.7349C77.806 55.5525 77.6236 56.4644 77.806 56.6468C77.9884 56.8291 78.1708 56.4644 78.3531 56.282Z" fill="#A30018"/>
<path d="M79.0859 61.5717C79.4507 61.7541 80.1802 61.7541 80.1802 61.3893C79.8154 61.207 79.0859 61.207 79.0859 61.5717Z" fill="#A30018"/>
<path d="M80.3582 51.5403C80.1758 51.5403 80.1758 51.905 80.1758 51.905C79.9935 51.905 79.9935 52.2698 80.1758 52.4521C80.3582 52.4521 80.5406 52.0874 80.723 52.0874C80.9053 52.0874 81.0877 51.905 81.2701 52.0874C81.2701 52.0874 81.6348 52.0874 81.8172 52.0874C81.8172 52.0874 81.9996 52.0874 81.9996 51.905C81.9996 51.5403 81.9996 51.1755 81.9996 50.9932C81.8172 50.9932 81.6348 51.1755 81.6348 51.1755C81.0877 51.1755 80.5406 51.5403 80.3582 51.5403Z" fill="#A30018"/>
<path d="M73.4319 61.3886C73.4319 61.0239 73.0671 60.6592 72.7024 60.2944C72.7024 60.2944 72.7024 60.2944 72.52 60.1121C72.3376 59.9297 72.3376 59.9297 72.3376 59.9297C72.1553 59.5649 71.7905 59.3826 71.7905 59.2002C71.7905 59.2002 71.6082 59.3826 71.4258 59.3826C71.4258 59.3826 71.6082 59.5649 71.7905 59.7473C72.1553 60.112 72.52 61.9358 72.7024 62.1181C73.0671 62.1181 73.4319 61.571 73.4319 61.3886Z" fill="#A30018"/>
<path d="M67.9586 57.5597C67.7762 57.742 68.3233 58.2892 68.5057 58.1068C68.5057 57.9244 68.5057 57.5597 68.3233 57.3773C68.3233 57.1949 68.141 57.3773 67.9586 57.5597Z" fill="#A30018"/>
<path d="M58.1133 66.1302C58.1133 66.3126 58.478 66.6773 58.6604 66.4949C58.8428 66.4949 59.2075 65.9478 59.3899 65.7654C59.3899 65.5831 59.5722 65.2183 59.5722 65.036C59.5722 64.8536 59.7546 64.6712 59.7546 64.6712C59.7546 64.6712 59.937 64.4888 59.937 64.1241C59.937 63.9417 59.937 62.6651 59.937 62.4828C59.937 62.3004 59.7546 62.4828 59.5722 62.6651C59.3899 62.8475 58.8428 63.2123 58.6604 63.3946C58.478 63.577 58.2956 64.1241 58.2956 64.3065C58.2956 64.4888 58.1133 64.8536 58.1133 64.8536C58.1133 65.036 58.1133 65.7654 58.1133 66.1302Z" fill="#A30018"/>
<path d="M36.2266 71.0558C36.4089 71.0558 36.4089 71.0558 36.5913 71.0558C36.7737 70.691 36.2266 70.691 36.2266 71.0558Z" fill="#A30018"/>
<path d="M52.8258 29.1089C52.6435 29.1089 52.2787 28.9265 52.2787 28.9265C52.2787 28.9265 51.5492 28.7441 51.3669 28.7441C51.1845 28.7441 51.3669 28.3794 51.5492 28.197C51.7316 28.197 51.7316 27.8323 51.3669 27.8323C51.1845 27.8323 50.455 27.6499 50.2726 27.6499C50.0903 27.6499 49.9079 27.4675 49.7255 27.4675C49.5432 27.4675 48.8137 27.6499 48.4489 27.4675C48.0842 27.4675 47.1723 27.2852 46.99 27.2852C46.8076 27.2852 46.6252 27.6499 46.6252 27.8323C46.6252 28.0146 45.7134 27.8323 45.3486 27.8323C44.9839 27.8323 43.5249 27.8323 42.9778 28.0146C42.6131 28.197 42.0659 28.7441 42.2483 28.7441C42.4307 28.7441 42.0659 29.1089 41.7012 29.1089C41.5188 29.1089 40.9717 29.1089 40.7893 29.2912C40.607 29.4736 40.9717 29.4736 40.9717 29.656C40.9717 29.656 41.1541 29.656 41.3365 29.656C41.5188 29.8384 41.8836 29.8384 42.0659 29.8384C42.2483 29.8384 41.7012 29.8384 41.3365 29.8384C41.1541 29.8384 41.1541 30.2031 41.3365 30.3855C41.5188 30.5678 42.0659 30.5678 42.0659 30.5678C42.0659 30.5678 42.6131 30.7502 42.9778 30.7502C43.1602 30.7502 43.3425 31.4797 43.3425 31.6621C43.3425 31.8444 43.3425 32.2092 43.3425 32.3915C43.3425 32.5739 43.7073 32.7563 43.8897 32.7563C43.8897 32.7563 43.8897 32.9387 43.7073 32.9387C43.5249 32.9387 43.5249 33.4858 43.7073 33.4858C43.8897 33.6681 43.7073 33.8505 43.5249 34.0329C43.3425 34.0329 43.3425 34.3976 43.3425 34.58C43.1602 34.58 43.7073 35.8566 43.5249 36.2213C43.5249 36.7685 43.7073 37.3156 43.8897 37.3156C44.072 37.3156 44.4368 37.4979 44.4368 37.6803C44.4368 37.8627 44.8015 37.6803 44.8015 37.4979C44.9839 37.4979 45.1663 37.1332 45.3486 36.9508C45.531 36.7685 45.8957 35.6742 46.0781 35.6742C46.0781 35.4919 46.6252 35.6742 46.8076 35.6742C46.99 35.6742 47.3547 35.4919 47.3547 35.3095C47.5371 35.3095 48.2666 35.1271 48.4489 34.9447C48.6313 34.7624 48.996 34.2153 49.1784 34.2153C49.3608 34.0329 49.1784 34.0329 48.996 34.0329C48.8137 33.8505 48.996 33.6681 48.996 33.6681C48.996 33.6681 49.5432 33.8505 49.7255 34.0329C49.9079 34.2153 50.2726 33.8505 50.2726 33.8505C50.0903 33.6681 50.2726 33.6681 50.2726 33.8505L50.455 33.4858C50.455 33.4858 51.1845 32.9387 51.0021 32.5739C51.0021 32.0268 51.3669 31.6621 51.5492 31.6621C51.7316 31.6621 51.7316 31.115 51.5492 31.115C51.3669 31.115 51.5492 30.9326 51.7316 30.9326L51.914 30.3855C51.914 30.2031 52.2787 30.2031 52.2787 30.2031C52.2787 30.0207 52.8258 30.0207 53.0082 30.0207C52.8258 29.4736 53.0082 29.1089 52.8258 29.1089Z" fill="#A30018"/>
<path d="M56.4707 30.0218C56.2883 29.8395 55.9236 30.0218 55.9236 30.2042C55.9236 30.3866 55.5588 30.0218 55.3765 30.0218C55.0117 30.2042 55.0117 30.5689 55.0117 30.5689C55.1941 30.5689 55.1941 31.1161 55.1941 31.1161C55.1941 31.1161 55.7412 31.2984 55.9236 31.1161C56.1059 31.1161 55.9236 31.4808 55.9236 31.6632C55.7412 31.8455 55.9236 32.0279 56.1059 32.0279C56.2883 32.0279 56.4707 32.3927 56.4707 32.3927C56.6531 32.3927 57.0178 31.8455 57.0178 31.6632C57.0178 31.4808 57.5649 31.6632 57.7473 31.8455C57.9297 32.0279 58.112 31.1161 57.9297 30.9337C57.7473 30.7513 57.3825 30.7513 57.3825 30.7513C57.3825 30.5689 57.2002 30.5689 57.0178 30.5689C56.6531 30.5689 56.6531 30.0218 56.4707 30.0218Z" fill="#A30018"/>
<path d="M58.2949 30.75C58.6596 30.9324 59.2068 30.5676 59.2068 30.5676C59.3891 30.5676 58.1125 30.0205 57.7478 30.0205C57.3831 30.0205 56.8359 30.0205 56.8359 30.0205C57.0183 30.0205 57.9302 30.5676 58.2949 30.75Z" fill="#A30018"/>
<path d="M49.5378 40.4161C49.3555 40.4161 49.3555 40.7808 49.3555 40.9632C49.3555 41.1455 49.7202 41.1455 49.9026 41.1455C50.085 41.1455 50.2673 40.9632 50.2673 40.9632C50.2673 40.7808 50.085 40.2337 50.085 40.2337C49.9026 40.0513 49.5378 40.4161 49.5378 40.4161Z" fill="#A30018"/>
<path d="M51.359 36.0404C51.359 35.858 50.6295 35.858 50.4471 35.858C50.2647 35.858 49.9 35.6756 49.7176 35.4933C49.7176 35.3109 49.5353 35.858 49.3529 35.858C49.1705 35.858 49.3529 36.0404 49.5353 36.0404C49.5353 36.0404 49.5353 36.2228 49.3529 36.4051C49.3529 36.5875 49.7176 36.5875 49.7176 36.7699C49.7176 36.9522 49.9 37.1346 50.0824 37.1346C50.2647 37.1346 50.6295 36.9522 50.8119 36.9522C51.1766 36.7699 51.359 36.0404 51.359 36.0404Z" fill="#A30018"/>
<path d="M64.8537 34.2165C65.0361 34.0342 65.948 33.8518 66.1303 33.6694C66.3127 33.4871 66.1303 33.3047 65.948 33.3047C65.7656 33.3047 65.7656 33.3047 65.7656 33.4871C65.7656 33.4871 64.6714 33.6694 64.3066 33.6694C63.9419 33.8518 63.5771 34.0342 63.3948 34.0342C63.2124 34.2165 62.8477 35.1284 62.8477 35.1284C62.8477 35.3108 63.03 35.6755 63.2124 35.8579C63.3948 36.0403 63.5771 36.0403 63.7595 36.0403C63.7595 36.0403 63.7595 35.3108 63.7595 35.1284C63.7595 34.7637 64.6714 34.3989 64.8537 34.2165Z" fill="#A30018"/>
<path d="M64.1328 31.4797C64.4976 31.8444 64.6799 31.4797 65.0447 31.4797C65.227 30.9326 64.3152 30.9326 64.1328 31.4797Z" fill="#A30018"/>
<path d="M70.6914 32.5749C70.6914 32.7573 71.6033 32.9397 71.7856 32.9397C72.1504 32.9397 71.7856 32.3926 71.4209 32.3926C71.0562 32.3926 70.6914 32.3926 70.6914 32.5749Z" fill="#A30018"/>
<path d="M36.043 34.5808C35.8607 34.5808 35.8607 35.1279 36.043 35.1279C36.2254 35.1279 36.5901 34.5808 36.7725 34.7632C36.9549 34.9456 37.1373 34.9455 37.1373 34.9455C37.1373 34.9455 36.5901 34.3984 36.4078 34.3984C36.4078 34.3984 36.2254 34.5808 36.043 34.5808Z" fill="#A30018"/>
<path d="M36.2266 50.4464C36.2266 50.4464 36.5913 50.6288 36.7737 50.4464C36.7737 50.264 36.7737 50.264 36.7737 50.264C36.5913 50.0816 36.2266 50.264 36.2266 50.4464Z" fill="#A30018"/>
<path d="M34.583 49.5356C34.7654 49.5356 34.583 49.9004 34.583 49.9004C34.583 50.0827 35.1301 50.2651 35.1301 50.2651C35.1301 50.2651 35.4948 50.0827 35.6772 50.2651C35.8596 50.2651 35.6772 49.5356 35.3125 49.5356C34.9477 49.5356 34.7654 49.1709 34.7654 49.1709C34.7654 49.1709 34.4006 48.8061 34.2182 48.8061C34.2182 48.6238 33.3064 48.4414 33.124 48.4414C32.9416 48.4414 32.5769 48.6238 32.3945 48.8061C32.3945 48.8061 32.7593 48.9885 32.9416 48.9885C33.124 48.9885 33.6711 49.1709 33.8535 49.3533C34.0359 49.3533 34.2182 49.5356 34.583 49.5356Z" fill="#A30018"/>
<path d="M33.4922 50.0831C33.4922 50.0831 33.8569 50.0831 34.0393 50.2654C34.2217 50.2654 34.2217 50.2654 34.0393 50.0831C34.0393 49.9007 33.4922 49.9007 33.4922 50.0831Z" fill="#A30018"/>
<path d="M34.2214 47.8945C34.0391 47.8945 34.0391 48.0769 34.0391 48.0769C34.0391 48.0769 34.0391 48.2593 34.2214 48.2593C34.0391 48.2593 34.2214 48.0769 34.2214 47.8945Z" fill="#A30018"/>
<path d="M34.9468 48.0769L34.7644 47.8945C34.7644 47.8945 34.582 48.0769 34.582 48.2593C34.582 48.4416 34.9468 48.2593 34.9468 48.0769Z" fill="#A30018"/>
<path d="M35.4936 49.1702C35.676 49.1702 35.676 48.9878 35.676 48.9878C35.4936 48.9878 35.4936 48.623 35.3113 48.623C35.1289 48.623 35.1289 48.8054 35.1289 48.8054C35.1289 48.9878 35.1289 48.9878 35.3113 48.9878C35.1289 48.9878 35.3113 49.1702 35.4936 49.1702Z" fill="#A30018"/>
<path d="M80.1816 62.1191H79.6345L79.4521 62.3015C79.2698 62.3015 79.4521 62.4839 79.4521 62.4839C79.6345 62.4839 79.9993 62.6663 80.1816 63.031C80.364 62.6663 80.364 62.4839 80.5464 62.1191C80.364 62.1191 80.1816 62.1191 80.1816 62.1191Z" fill="#A30018"/>
<path d="M39.3232 29.8389C39.3232 29.8389 39.1409 29.8389 39.3232 29.8389C39.1409 30.0212 39.3232 29.8389 39.3232 29.8389Z" fill="#A30018"/>
<path d="M41.1524 39.5039C40.97 39.5039 40.97 39.5039 41.1524 39.5039C40.97 39.6863 41.1524 39.6863 41.1524 39.5039Z" fill="#A30018"/>
</svg>
