<svg width="20" height="20" viewBox="0 0 20 20" fill="none" xmlns="http://www.w3.org/2000/svg">
<path d="M17.5 17.5H2.5C1.83696 17.5 1.20107 17.2366 0.732233 16.7678C0.263392 16.2989 0 15.663 0 15V5C0 4.33696 0.263392 3.70107 0.732233 3.23223C1.20107 2.76339 1.83696 2.5 2.5 2.5H17.5C18.163 2.5 18.7989 2.76339 19.2678 3.23223C19.7366 3.70107 20 4.33696 20 5V15C20 15.663 19.7366 16.2989 19.2678 16.7678C18.7989 17.2366 18.163 17.5 17.5 17.5Z" fill="#43458B"/>
<path d="M0 13.75H20V15H0V13.75ZM17.5 17.5H2.5C2.06117 17.5 1.63007 17.3845 1.25004 17.165C0.87 16.9456 0.554415 16.63 0.335 16.25H19.665C19.4456 16.63 19.13 16.9456 18.75 17.165C18.3699 17.3845 17.9388 17.5 17.5 17.5V17.5ZM0 11.25H20V12.5H0V11.25ZM0 8.75H20V10H0V8.75ZM6.25 6.25H20V7.5H6.25V6.25ZM6.25 3.75H19.6537C19.8675 4.11875 20 4.5425 20 5H6.25V3.75Z" fill="#F6F9FC"/>
<path fill-rule="evenodd" clip-rule="evenodd" d="M2.5 5V2.5H3.75V5H6.25V6.25H3.75V8.75H2.5V6.25H0V5H2.5Z" fill="white"/>
<path d="M17.5 17.5H2.5C1.83696 17.5 1.20107 17.2366 0.732233 16.7678C0.263392 16.2989 0 15.663 0 15V5C0 4.33696 0.263392 3.70107 0.732233 3.23223C1.20107 2.76339 1.83696 2.5 2.5 2.5H17.5C18.163 2.5 18.7989 2.76339 19.2678 3.23223C19.7366 3.70107 20 4.33696 20 5V15C20 15.663 19.7366 16.2989 19.2678 16.7678C18.7989 17.2366 18.163 17.5 17.5 17.5ZM18.75 5C18.75 4.66848 18.6183 4.35054 18.3839 4.11612C18.1495 3.8817 17.8315 3.75 17.5 3.75H2.5C2.16848 3.75 1.85054 3.8817 1.61612 4.11612C1.3817 4.35054 1.25 4.66848 1.25 5V15C1.25 15.3315 1.3817 15.6495 1.61612 15.8839C1.85054 16.1183 2.16848 16.25 2.5 16.25H17.5C17.8315 16.25 18.1495 16.1183 18.3839 15.8839C18.6183 15.6495 18.75 15.3315 18.75 15V5Z" fill="#43458B" fill-opacity="0.1"/>
</svg>
