<svg width="180" height="33" viewBox="0 0 180 33" fill="none" xmlns="http://www.w3.org/2000/svg">
<path d="M13.468 19.5162C13.468 22.6562 10.3409 24.8789 7.49803 24.8789C5.04607 24.8789 3.55357 23.6088 2.62964 23.6088C2.20321 23.6088 1.95446 23.8558 1.91893 24.385H0.533035L0.106607 19.4809H0.852857C1.38589 19.4809 1.74125 19.5868 1.91893 20.116C2.52303 22.0212 5.01053 23.5735 6.92946 23.5735C8.45749 23.5735 9.41696 22.5857 9.41696 21.245C9.41696 19.4809 7.88892 18.7047 5.72125 17.6816C3.34035 16.5526 0 14.9297 0 11.5074C0 8.50849 2.52303 6.46218 5.68571 6.46218C8.13767 6.46218 8.91946 7.45006 9.80785 7.45006C10.3053 7.45006 10.5541 7.16781 10.6607 6.74443H12.0466L12.3664 11.578H11.6557C11.1227 11.578 10.7673 11.4368 10.5541 10.9076C9.70124 8.8613 8.03106 7.73231 6.39642 7.73231C4.93946 7.73231 3.90893 8.72018 3.90893 10.0609C3.90893 11.6132 5.18821 12.3894 7.0716 13.2362C9.23928 14.224 13.468 15.8822 13.468 19.5162ZM26.6518 6.46218C30.0277 6.46218 34.2919 9.67277 34.2919 15.9528C34.2919 21.6331 29.6723 24.9495 25.9411 24.9495C24.0932 24.9495 22.8139 24.138 21.89 23.1854V26.9252C21.89 28.2307 22.7428 28.4776 24.4486 28.2659V29.7125C20.5752 30.4181 18.1943 32.041 16.9505 32.041C16.4175 32.041 16.0977 31.794 16.0977 31.3354C16.0977 30.4181 17.0927 30.7709 17.0927 27.6309V11.2957C17.0927 9.9903 16.2398 9.70805 14.8895 9.91974V8.57905C18.4075 7.87343 19.9711 6.28578 20.895 6.28578C21.6412 6.28578 21.89 6.67387 21.89 7.48534V8.43793C22.8139 7.45006 24.2353 6.46218 26.6518 6.46218ZM25.9766 23.6088C28.3575 23.6088 29.1393 20.8216 29.1393 17.4699C29.1393 11.6485 27.6823 7.97927 25.3369 7.97927C23.9155 7.97927 22.7428 8.89658 21.89 9.95502V19.4104C22.2098 21.6684 24.0932 23.6088 25.9766 23.6088ZM51.1714 20.4335C51.6334 20.4335 51.74 20.8922 51.4201 21.4567C50.283 23.4677 48.3641 24.7731 45.3435 24.7731C40.4396 24.7731 36.4241 21.5625 36.4241 15.5294C36.4241 9.60221 40.6173 6.46218 44.846 6.46218C49.288 6.46218 52.4151 9.56693 52.4151 13.6595C52.4151 15.1766 51.811 16.1645 50.2119 16.1645H41.328C41.3991 20.0101 42.5718 23.3619 45.9476 23.3619C47.831 23.3619 49.0392 22.5857 49.9632 20.9627C50.1764 20.6099 50.283 20.4335 50.7094 20.4335H51.1714ZM47.8666 14.5416C47.8666 10.3784 47.0493 7.87343 44.8105 7.87343C42.5007 7.87343 41.3635 10.3784 41.328 14.5416H47.8666ZM72.2441 21.7742C72.2441 22.6562 73.2035 22.9385 74.4828 23.0796V24.4203C71.3912 24.3144 68.3351 24.3144 65.2435 24.4203V23.0796C66.4873 22.9738 67.4467 22.6562 67.4467 21.7742V12.7422C67.4467 10.2373 67.2335 8.54377 65.4567 8.54377C63.218 8.54377 61.3701 11.4368 61.0148 12.2483V21.7742C61.0148 22.6562 61.9742 22.9738 63.2535 23.0796V24.4203C60.1619 24.3144 57.1059 24.3144 54.0142 24.4203V23.0796C55.258 22.9385 56.2175 22.6562 56.2175 21.7742V11.2957C56.2175 9.9903 55.3646 9.70805 54.0142 9.91974V8.57905C57.5323 7.87343 59.0959 6.28578 60.0198 6.28578C60.766 6.28578 61.1214 6.77971 61.0148 7.62646L60.695 10.449C61.5123 9.21411 63.5378 6.4269 66.9137 6.4269C69.6855 6.4269 72.2441 7.59118 72.2441 12.5658V21.7742ZM92.8548 19.9749C92.8548 21.2803 93.7076 21.5625 95.0935 21.3155V22.8326C91.6465 23.6794 90.0119 24.8789 89.1235 24.8789C88.3417 24.8789 87.9508 24.385 88.0574 23.503L88.2351 21.9153C87.7731 23.2913 86.4939 24.7731 83.7221 24.7731C79.9908 24.7731 75.7266 21.8095 75.7266 15.5294C75.7266 9.53165 79.9553 6.46218 83.5444 6.46218C85.8898 6.46218 87.2757 7.73231 88.0574 8.89658V4.9451C88.0574 3.63969 87.2046 3.2516 85.8542 3.46329V2.1226C89.3723 1.45226 90.9358 0.0410156 91.8598 0.0410156C92.606 0.0410156 92.8548 0.429109 92.8548 1.24058V19.9749ZM84.8592 23.3266C86.6715 23.3266 87.8087 21.4214 88.0574 19.6573V10.449C87.3112 9.2494 85.9253 7.90871 84.2907 7.90871C81.8742 7.90871 80.8082 10.4137 80.8082 14.5768C80.8082 19.6221 82.3717 23.3266 84.8592 23.3266ZM112.008 19.234L110.8 24.4203H97.4033C96.5505 24.4203 96.3017 23.7499 96.7637 23.0443L106.429 8.01455L101.632 8.04984C100.353 8.04984 100.104 8.8613 98.9314 11.2251H97.119L98.3628 6.49747H99.8908C101.028 6.74443 101.739 6.74443 103.515 6.74443C106.358 6.74443 108.917 6.74443 112.293 6.67387L101.881 23.0796L106.465 23.009C108.313 22.9738 108.81 22.0917 110.125 19.234H112.008ZM122.669 6.46218C126.72 6.46218 131.304 9.28468 131.304 15.4236C131.304 21.7036 126.72 24.7731 122.705 24.7731C118.654 24.7731 114.07 21.7036 114.07 15.7058C114.07 9.28468 118.654 6.46218 122.669 6.46218ZM126.152 16.6584C126.152 11.331 124.624 7.87343 122.207 7.87343C120.217 7.87343 119.222 10.2373 119.222 14.5416C119.222 19.8337 120.75 23.3619 123.167 23.3619C125.192 23.3619 126.152 20.9627 126.152 16.6584ZM142.036 6.46218C146.087 6.46218 150.671 9.28468 150.671 15.4236C150.671 21.7036 146.087 24.7731 142.072 24.7731C138.021 24.7731 133.437 21.7036 133.437 15.7058C133.437 9.28468 138.021 6.46218 142.036 6.46218ZM145.519 16.6584C145.519 11.331 143.991 7.87343 141.574 7.87343C139.584 7.87343 138.589 10.2373 138.589 14.5416C138.589 19.8337 140.117 23.3619 142.534 23.3619C144.559 23.3619 145.519 20.9627 145.519 16.6584ZM170.5 21.7742C170.5 22.6562 171.46 22.9385 172.739 23.0796V24.4203C169.647 24.3144 166.591 24.3144 163.5 24.4203V23.0796C164.743 22.9738 165.703 22.6562 165.703 21.7742V12.7422C165.703 10.2373 165.49 8.54377 163.713 8.54377C161.474 8.54377 159.626 11.4368 159.271 12.2483V21.7742C159.271 22.6562 160.23 22.9738 161.51 23.0796V24.4203C158.418 24.3144 155.362 24.3144 152.27 24.4203V23.0796C153.514 22.9385 154.474 22.6562 154.474 21.7742V11.2957C154.474 9.9903 153.621 9.70805 152.27 9.91974V8.57905C155.788 7.87343 157.352 6.28578 158.276 6.28578C159.022 6.28578 159.378 6.77971 159.271 7.62646L158.951 10.449C159.768 9.21411 161.794 6.4269 165.17 6.4269C167.942 6.4269 170.5 7.59118 170.5 12.5658V21.7742ZM177.288 24.7731C175.973 24.7731 174.871 23.6794 174.871 22.3387C174.871 21.0333 175.973 19.9396 177.288 19.9396C178.602 19.9396 179.704 21.0333 179.704 22.3387C179.704 23.6794 178.602 24.7731 177.288 24.7731Z" fill="white"/>
<ellipse cx="177.193" cy="22.1165" rx="2.80787" ry="2.81667" fill="#A30018"/>
</svg>
