<svg width="20" height="20" viewBox="0 0 20 20" fill="none" xmlns="http://www.w3.org/2000/svg">
<path d="M6.25 2.5H13.75V17.5H6.25V2.5Z" fill="#F6F9FC"/>
<path d="M6.25 17.5V16.25H13.75V17.5H6.25ZM6.25 2.5H13.75V3.75H6.25V2.5Z" fill="#EAEEF3"/>
<path d="M2.5 2.5H6.25V17.5H2.5C1.83696 17.5 1.20107 17.2366 0.732233 16.7678C0.263392 16.2989 0 15.663 0 15V5C0 4.33696 0.263392 3.70107 0.732233 3.23223C1.20107 2.76339 1.83696 2.5 2.5 2.5V2.5Z" fill="#24B47E"/>
<path d="M17.5 17.5H13.75V2.5H17.5C18.163 2.5 18.7989 2.76339 19.2678 3.23223C19.7366 3.70107 20 4.33696 20 5V15C20 15.663 19.7366 16.2989 19.2678 16.7678C18.7989 17.2366 18.163 17.5 17.5 17.5Z" fill="#F79A59"/>
</svg>
