<svg width="20" height="20" viewBox="0 0 20 20" fill="none" xmlns="http://www.w3.org/2000/svg">
<g clip-path="url(#clip0_4650_51011)">
<path fill-rule="evenodd" clip-rule="evenodd" d="M2.49251 2.5H17.5075C18.1703 2.50199 18.8052 2.76711 19.2726 3.23709C19.74 3.70707 20.0017 4.34342 20 5.00625V8.75H7.85175e-06V5.00625C7.85175e-06 3.6175 1.11626 2.5 2.49251 2.5ZM7.85175e-06 11.25H20V14.9937C20.0013 15.3221 19.9379 15.6475 19.8132 15.9512C19.6886 16.255 19.5053 16.5312 19.2737 16.764C19.0422 16.9968 18.767 17.1817 18.4639 17.308C18.1609 17.4342 17.8358 17.4995 17.5075 17.5H2.49251C1.82968 17.498 1.19478 17.2329 0.727377 16.7629C0.259978 16.2929 -0.00165219 15.6566 7.85175e-06 14.9937V11.25Z" fill="#B1372F"/>
<path fill-rule="evenodd" clip-rule="evenodd" d="M0 8.75H20V11.25H0V8.75Z" fill="#F6F9FC"/>
<path d="M18.6662 11.25V8.75H20V11.25H18.6662ZM0 8.75H1.33375V11.25H0V8.75Z" fill="#EAEEF3"/>
</g>
<defs>
<clipPath id="clip0_4650_51011">
<rect width="20" height="20" fill="white"/>
</clipPath>
</defs>
</svg>
