<svg width="20" height="20" viewBox="0 0 20 20" fill="none" xmlns="http://www.w3.org/2000/svg">
<g clip-path="url(#clip0_4650_51052)">
<path fill-rule="evenodd" clip-rule="evenodd" d="M2.49252 2.5C2.16448 2.49967 1.8396 2.56416 1.53655 2.68977C1.23351 2.81539 0.958275 2.99964 0.726661 3.23195C0.495047 3.46426 0.31162 3.74005 0.186919 4.04347C0.0622187 4.34689 -0.00129753 4.67196 2.00873e-05 5V7.5H20V5C20 3.61875 18.8813 2.5 17.5075 2.5H2.49252Z" fill="#FCD669"/>
<path d="M18.75 7.5V5C18.75 4.66848 18.6183 4.35054 18.3839 4.11612C18.1495 3.8817 17.8315 3.75 17.5 3.75H2.5C2.16848 3.75 1.85054 3.8817 1.61612 4.11612C1.3817 4.35054 1.25 4.66848 1.25 5V7.5H0V5C0 4.33696 0.263392 3.70107 0.732233 3.23223C1.20107 2.76339 1.83696 2.5 2.5 2.5H17.5C18.163 2.5 18.7989 2.76339 19.2678 3.23223C19.7366 3.70107 20 4.33696 20 5V7.5H18.75Z" fill="#A68527" fill-opacity="0.1"/>
<path fill-rule="evenodd" clip-rule="evenodd" d="M0 7.5H20V12.5H0V7.5Z" fill="#159570"/>
<path fill-rule="evenodd" clip-rule="evenodd" d="M0 12.5V15C0 16.3813 1.11875 17.5 2.4925 17.5H17.5075C17.8355 17.5003 18.1604 17.4358 18.4635 17.3102C18.7665 17.1846 19.0417 17.0004 19.2734 16.7681C19.505 16.5357 19.6884 16.26 19.8131 15.9565C19.9378 15.6531 20.0013 15.328 20 15V12.5H0Z" fill="#E25950"/>
</g>
<defs>
<clipPath id="clip0_4650_51052">
<rect width="20" height="20" fill="white"/>
</clipPath>
</defs>
</svg>
