<svg width="20" height="20" viewBox="0 0 20 20" fill="none" xmlns="http://www.w3.org/2000/svg">
<g clip-path="url(#clip0_4650_51118)">
<path fill-rule="evenodd" clip-rule="evenodd" d="M2.49751 2.5C1.83346 2.50232 1.19747 2.76808 0.729205 3.23892C0.26094 3.70976 -0.00132381 4.3472 5.02517e-06 5.01125V14.9888C5.02517e-06 16.3763 1.10876 17.5 2.49751 17.5H10V2.5H2.49751Z" fill="#F6F9FC"/>
<path d="M2.5 3.75C2.16848 3.75 1.85054 3.8817 1.61612 4.11612C1.3817 4.35054 1.25 4.66848 1.25 5V15C1.25 15.3315 1.3817 15.6495 1.61612 15.8839C1.85054 16.1183 2.16848 16.25 2.5 16.25H10V17.5H2.5C1.83696 17.5 1.20107 17.2366 0.732233 16.7678C0.263392 16.2989 0 15.663 0 15V5C0 4.33696 0.263392 3.70107 0.732233 3.23223C1.20107 2.76339 1.83696 2.5 2.5 2.5H10V3.75H2.5Z" fill="#EAEEF3"/>
<path fill-rule="evenodd" clip-rule="evenodd" d="M10 2.5V17.5H17.5025C18.1665 17.4977 18.8025 17.2319 19.2708 16.7611C19.7391 16.2902 20.0013 15.6528 20 14.9888V5.0125C20 3.62375 18.8912 2.5 17.5025 2.5H10Z" fill="#E25950"/>
<path fill-rule="evenodd" clip-rule="evenodd" d="M6.25 6.25H8.75V8.75H6.25V11.25H3.75V8.75H1.25V6.25H3.75V3.75H6.25V6.25Z" fill="#CFD7DF"/>
</g>
<defs>
<clipPath id="clip0_4650_51118">
<rect width="20" height="20" fill="white"/>
</clipPath>
</defs>
</svg>
