<svg width="20" height="20" viewBox="0 0 20 20" fill="none" xmlns="http://www.w3.org/2000/svg">
<path d="M7.5 17.5H2.5C1.83696 17.5 1.20107 17.2366 0.732233 16.7678C0.263392 16.2989 0 15.663 0 15V5C0 4.33696 0.263392 3.70107 0.732233 3.23223C1.20107 2.76339 1.83696 2.5 2.5 2.5H7.5V17.5Z" fill="#24B47E"/>
<path d="M17.5 17.5H7.5V2.5H17.5C18.163 2.5 18.7989 2.76339 19.2678 3.23223C19.7366 3.70107 20 4.33696 20 5V15C20 15.663 19.7366 16.2989 19.2678 16.7678C18.7989 17.2366 18.163 17.5 17.5 17.5Z" fill="#E25950"/>
<path d="M7.46875 6.25C9.55625 6.25 11.25 7.92875 11.25 9.99875C11.25 12.0688 9.55625 13.7475 7.46875 13.7475C5.405 13.7125 3.75 12.045 3.75 9.99875C3.75 7.95375 5.405 6.28625 7.46875 6.25125V6.25Z" fill="#FCD669"/>
<path d="M7.42613 7.50015C8.08917 7.48026 8.73295 7.72457 9.21586 8.17935C9.69877 8.63413 9.98123 9.26211 10.0011 9.92515C10.021 10.5882 9.7767 11.232 9.32193 11.7149C8.86715 12.1978 8.23917 12.4803 7.57613 12.5001C6.91308 12.52 6.2693 12.2757 5.78639 11.8209C5.30349 11.3662 5.02102 10.7382 5.00113 10.0751C4.98123 9.41211 5.22555 8.76832 5.68033 8.28542C6.1351 7.80251 6.76308 7.52004 7.42613 7.50015V7.50015Z" fill="#E25950"/>
<path d="M6.25 8.75H8.75V10.625C8.75 10.9565 8.6183 11.2745 8.38388 11.5089C8.14946 11.7433 7.83152 11.875 7.5 11.875C7.16848 11.875 6.85054 11.7433 6.61612 11.5089C6.3817 11.2745 6.25 10.9565 6.25 10.625V8.75Z" fill="white"/>
</svg>
