<svg width="20" height="20" viewBox="0 0 20 20" fill="none" xmlns="http://www.w3.org/2000/svg">
<g clip-path="url(#clip0_4650_51098)">
<path fill-rule="evenodd" clip-rule="evenodd" d="M2.49252 2.5C2.16418 2.50049 1.83916 2.56575 1.53608 2.69205C1.233 2.81834 0.957818 3.00318 0.726286 3.23599C0.494754 3.4688 0.311426 3.745 0.186801 4.04877C0.0621765 4.35254 -0.00129566 4.67791 2.0043e-05 5.00625V8.75H20V5.00625C20.0017 4.34342 19.74 3.70707 19.2727 3.23709C18.8053 2.76711 18.1703 2.50199 17.5075 2.5H2.49252Z" fill="#F6F9FC"/>
<path d="M18.75 7.5V5.00625C18.7517 4.67494 18.6217 4.35653 18.3887 4.12097C18.1558 3.88541 17.8388 3.75198 17.5075 3.75H2.4925C2.32831 3.75049 2.16584 3.78342 2.01441 3.84689C1.86299 3.91037 1.7256 4.00314 1.61014 4.11988C1.49468 4.23661 1.40343 4.37501 1.34162 4.52713C1.27982 4.67924 1.24868 4.84207 1.25 5.00625V7.5H0V5.00625C0 3.6175 1.11625 2.5 2.4925 2.5H17.5075C18.1703 2.50199 18.8052 2.76711 19.2726 3.23709C19.74 3.70707 20.0017 4.34342 20 5.00625V7.5H18.75Z" fill="#EAEEF3"/>
<path fill-rule="evenodd" clip-rule="evenodd" d="M0 7.5H20V12.5H0V7.5Z" fill="#217AB7"/>
<path fill-rule="evenodd" clip-rule="evenodd" d="M0 12.5V15C0 16.3813 1.11875 17.5 2.4925 17.5H17.5075C17.8355 17.5003 18.1604 17.4358 18.4635 17.3102C18.7665 17.1846 19.0417 17.0004 19.2734 16.7681C19.505 16.5357 19.6884 16.26 19.8131 15.9565C19.9378 15.6531 20.0013 15.328 20 15V12.5H0Z" fill="#E25950"/>
<path d="M3.75 5H8.75V8.125C8.75 8.78804 8.48661 9.42393 8.01777 9.89277C7.54893 10.3616 6.91304 10.625 6.25 10.625C5.58696 10.625 4.95107 10.3616 4.48223 9.89277C4.01339 9.42393 3.75 8.78804 3.75 8.125V5Z" fill="white"/>
<path fill-rule="evenodd" clip-rule="evenodd" d="M3.75 5H8.75V7.5H3.75V5Z" fill="#217AB7"/>
</g>
<defs>
<clipPath id="clip0_4650_51098">
<rect width="20" height="20" fill="white"/>
</clipPath>
</defs>
</svg>
