<svg width="20" height="20" viewBox="0 0 20 20" fill="none" xmlns="http://www.w3.org/2000/svg">
<path d="M0 6.25H20V13.75H0V6.25Z" fill="#FCD669"/>
<path d="M18.75 13.75V6.25H20V13.75H18.75ZM0 6.25H1.25V13.75H0V6.25Z" fill="#A68527" fill-opacity="0.1"/>
<path d="M0 6.25V5C0 4.33696 0.263392 3.70107 0.732233 3.23223C1.20107 2.76339 1.83696 2.5 2.5 2.5H17.5C18.163 2.5 18.7989 2.76339 19.2678 3.23223C19.7366 3.70107 20 4.33696 20 5V6.25H0ZM17.5 17.5H2.5C1.83696 17.5 1.20107 17.2366 0.732233 16.7678C0.263392 16.2989 0 15.663 0 15V13.75H20V15C20 15.663 19.7366 16.2989 19.2678 16.7678C18.7989 17.2366 18.163 17.5 17.5 17.5Z" fill="#E25950"/>
<path d="M5 7.5H7.5V10H5V7.5Z" fill="white"/>
<path d="M5 13.125C4.33696 13.125 3.70107 12.8616 3.23223 12.3928C2.76339 11.9239 2.5 11.288 2.5 10.625V10H5V13.125Z" fill="#F79A59"/>
<path d="M5 13.125V10H7.5V10.625C7.5 11.288 7.23661 11.9239 6.76777 12.3928C6.29893 12.8616 5.66304 13.125 5 13.125ZM2.5 7.5H5V10H2.5V7.5Z" fill="#E25950"/>
</svg>
