<svg width="20" height="20" viewBox="0 0 20 20" fill="none" xmlns="http://www.w3.org/2000/svg">
<g clip-path="url(#clip0_4650_51155)">
<path d="M17.5 17.5H2.5C1.83696 17.5 1.20107 17.2366 0.732233 16.7678C0.263392 16.2989 0 15.663 0 15V5C0 4.33696 0.263392 3.70107 0.732233 3.23223C1.20107 2.76339 1.83696 2.5 2.5 2.5H17.5C18.163 2.5 18.7989 2.76339 19.2678 3.23223C19.7366 3.70107 20 4.33696 20 5V15C20 15.663 19.7366 16.2989 19.2678 16.7678C18.7989 17.2366 18.163 17.5 17.5 17.5Z" fill="#E25950"/>
<path d="M0 13.75H20V15H0V13.75ZM17.5 17.5H2.5C2.06117 17.5 1.63007 17.3845 1.25004 17.165C0.87 16.9456 0.554415 16.63 0.335 16.25H19.665C19.4456 16.63 19.13 16.9456 18.75 17.165C18.3699 17.3845 17.9388 17.5 17.5 17.5V17.5ZM0 11.25H20V12.5H0V11.25ZM10 8.75H20V10H10V8.75ZM10 6.25H20V7.5H10V6.25ZM10 3.75H19.6537C19.8675 4.11875 20 4.5425 20 5H10V3.75Z" fill="#F6F9FC"/>
<path opacity="0.1" d="M17.5 17.5H2.5C1.83696 17.5 1.20107 17.2366 0.732233 16.7678C0.263392 16.2989 0 15.663 0 15V10H1.25V15C1.25 15.3315 1.3817 15.6495 1.61612 15.8839C1.85054 16.1183 2.16848 16.25 2.5 16.25H17.5C17.8315 16.25 18.1495 16.1183 18.3839 15.8839C18.6183 15.6495 18.75 15.3315 18.75 15V5C18.75 4.66848 18.6183 4.35054 18.3839 4.11612C18.1495 3.8817 17.8315 3.75 17.5 3.75H10V2.5H17.5C18.163 2.5 18.7989 2.76339 19.2678 3.23223C19.7366 3.70107 20 4.33696 20 5V15C20 15.663 19.7366 16.2989 19.2678 16.7678C18.7989 17.2366 18.163 17.5 17.5 17.5Z" fill="#E25950"/>
<path d="M0 10V4.6425C0 3.46 0.995 2.5 2.2225 2.5H10V10H0Z" fill="#43458B"/>
<path d="M8.78159 6.87695C8.78159 7.04271 8.71574 7.20168 8.59853 7.31889C8.48132 7.4361 8.32235 7.50195 8.15659 7.50195C7.99083 7.50195 7.83186 7.4361 7.71465 7.31889C7.59744 7.20168 7.53159 7.04271 7.53159 6.87695C7.53159 6.71119 7.59744 6.55222 7.71465 6.43501C7.83186 6.3178 7.99083 6.25195 8.15659 6.25195C8.32235 6.25195 8.48132 6.3178 8.59853 6.43501C8.71574 6.55222 8.78159 6.71119 8.78159 6.87695V6.87695ZM6.89659 6.2507C6.81451 6.25382 6.73263 6.24074 6.6556 6.21222C6.57858 6.18369 6.50793 6.14027 6.44769 6.08444C6.32603 5.97168 6.25414 5.81521 6.24784 5.64945C6.24154 5.48369 6.30135 5.32222 6.4141 5.20056C6.52686 5.07889 6.68333 5.007 6.84909 5.0007C7.01485 4.9944 7.17632 5.05421 7.29799 5.16697C7.41965 5.27972 7.49154 5.43619 7.49784 5.60195C7.50414 5.76771 7.44433 5.92919 7.33157 6.05085C7.21882 6.17252 7.06235 6.2444 6.89659 6.2507ZM6.28159 6.87695C6.28159 7.04271 6.21574 7.20168 6.09853 7.31889C5.98132 7.4361 5.82235 7.50195 5.65659 7.50195C5.49083 7.50195 5.33186 7.4361 5.21465 7.31889C5.09744 7.20168 5.03159 7.04271 5.03159 6.87695C5.03159 6.71119 5.09744 6.55222 5.21465 6.43501C5.33186 6.3178 5.49083 6.25195 5.65659 6.25195C5.82235 6.25195 5.98132 6.3178 6.09853 6.43501C6.21574 6.55222 6.28159 6.71119 6.28159 6.87695V6.87695ZM4.39659 6.2507C4.23083 6.257 4.06935 6.19719 3.94769 6.08444C3.82603 5.97168 3.75414 5.81521 3.74784 5.64945C3.74154 5.48369 3.80135 5.32222 3.9141 5.20056C4.02686 5.07889 4.18333 5.007 4.34909 5.0007C4.43116 4.99758 4.51305 5.01066 4.59007 5.03919C4.6671 5.06772 4.73774 5.11114 4.79799 5.16697C4.85823 5.2228 4.90688 5.28995 4.94117 5.36458C4.97547 5.43922 4.99472 5.51988 4.99784 5.60195C5.00096 5.68403 4.98788 5.76592 4.95935 5.84294C4.93082 5.91996 4.88741 5.99061 4.83157 6.05085C4.77574 6.11109 4.70859 6.15975 4.63396 6.19404C4.55932 6.22833 4.47866 6.24758 4.39659 6.2507V6.2507ZM3.78159 6.87695C3.78159 7.04271 3.71574 7.20168 3.59853 7.31889C3.48132 7.4361 3.32235 7.50195 3.15659 7.50195C2.99083 7.50195 2.83186 7.4361 2.71465 7.31889C2.59744 7.20168 2.53159 7.04271 2.53159 6.87695C2.53159 6.71119 2.59744 6.55222 2.71465 6.43501C2.83186 6.3178 2.99083 6.25195 3.15659 6.25195C3.32235 6.25195 3.48132 6.3178 3.59853 6.43501C3.71574 6.55222 3.78159 6.71119 3.78159 6.87695V6.87695ZM8.78159 4.37695C8.78159 4.54271 8.71574 4.70168 8.59853 4.8189C8.48132 4.93611 8.32235 5.00195 8.15659 5.00195C7.99083 5.00195 7.83186 4.93611 7.71465 4.8189C7.59744 4.70168 7.53159 4.54271 7.53159 4.37695C7.53159 4.21119 7.59744 4.05222 7.71465 3.93501C7.83186 3.8178 7.99083 3.75195 8.15659 3.75195C8.32235 3.75195 8.48132 3.8178 8.59853 3.93501C8.71574 4.05222 8.78159 4.21119 8.78159 4.37695ZM6.28159 4.37695C6.28159 4.54271 6.21574 4.70168 6.09853 4.8189C5.98132 4.93611 5.82235 5.00195 5.65659 5.00195C5.49083 5.00195 5.33186 4.93611 5.21465 4.8189C5.09744 4.70168 5.03159 4.54271 5.03159 4.37695C5.03159 4.21119 5.09744 4.05222 5.21465 3.93501C5.33186 3.8178 5.49083 3.75195 5.65659 3.75195C5.82235 3.75195 5.98132 3.8178 6.09853 3.93501C6.21574 4.05222 6.28159 4.21119 6.28159 4.37695ZM3.78159 4.37695C3.78159 4.54271 3.71574 4.70168 3.59853 4.8189C3.48132 4.93611 3.32235 5.00195 3.15659 5.00195C2.99083 5.00195 2.83186 4.93611 2.71465 4.8189C2.59744 4.70168 2.53159 4.54271 2.53159 4.37695C2.53159 4.21119 2.59744 4.05222 2.71465 3.93501C2.83186 3.8178 2.99083 3.75195 3.15659 3.75195C3.32235 3.75195 3.48132 3.8178 3.59853 3.93501C3.71574 4.05222 3.78159 4.21119 3.78159 4.37695V4.37695ZM1.89784 6.25195C1.81468 6.25708 1.73134 6.24553 1.65271 6.21798C1.57408 6.19043 1.50175 6.14744 1.43998 6.09153C1.37821 6.03562 1.32824 5.96793 1.29301 5.89243C1.25777 5.81693 1.23799 5.73515 1.23483 5.65189C1.23166 5.56864 1.24517 5.48559 1.27457 5.40763C1.30396 5.32968 1.34864 5.25838 1.40599 5.19794C1.46334 5.13751 1.53219 5.08914 1.6085 5.0557C1.68481 5.02226 1.76703 5.00441 1.85034 5.0032C2.0161 4.9969 2.17757 5.05671 2.29924 5.16947C2.4209 5.28222 2.49279 5.43869 2.49909 5.60445C2.50539 5.77021 2.44558 5.93169 2.33282 6.05335C2.22007 6.17502 2.0636 6.2469 1.89784 6.2532V6.25195ZM1.91534 7.50195C1.99857 7.49678 2.082 7.50831 2.16071 7.53587C2.23942 7.56344 2.31182 7.60647 2.37364 7.66245C2.43546 7.71843 2.48545 7.78621 2.52067 7.8618C2.55589 7.9374 2.57563 8.01928 2.57871 8.10262C2.5818 8.18595 2.56818 8.26907 2.53864 8.34706C2.50911 8.42505 2.46427 8.49635 2.40676 8.55674C2.34925 8.61714 2.28024 8.66541 2.20378 8.69873C2.12733 8.73204 2.04498 8.74971 1.96159 8.7507C1.79583 8.75684 1.63442 8.69687 1.51287 8.584C1.39133 8.47112 1.3196 8.31459 1.31346 8.14883C1.30733 7.98307 1.3673 7.82166 1.48017 7.70011C1.59304 7.57857 1.74958 7.50684 1.91534 7.5007V7.50195ZM4.41534 7.50195C4.49857 7.49678 4.582 7.50831 4.66071 7.53587C4.73942 7.56344 4.81182 7.60647 4.87364 7.66245C4.93546 7.71843 4.98545 7.78621 5.02067 7.8618C5.05589 7.9374 5.07563 8.01928 5.07871 8.10262C5.0818 8.18595 5.06817 8.26907 5.03864 8.34706C5.00911 8.42505 4.96427 8.49635 4.90676 8.55674C4.84925 8.61714 4.78024 8.66541 4.70378 8.69873C4.62733 8.73204 4.54498 8.74971 4.46159 8.7507C4.29583 8.75684 4.13442 8.69687 4.01287 8.584C3.89133 8.47112 3.8196 8.31459 3.81346 8.14883C3.80733 7.98307 3.8673 7.82166 3.98017 7.70011C4.09304 7.57857 4.24958 7.50684 4.41534 7.5007V7.50195ZM6.91534 7.50195C6.99857 7.49678 7.082 7.50831 7.16071 7.53587C7.23942 7.56344 7.31182 7.60647 7.37364 7.66245C7.43546 7.71843 7.48545 7.78621 7.52067 7.8618C7.55589 7.9374 7.57563 8.01928 7.57871 8.10262C7.5818 8.18595 7.56817 8.26907 7.53864 8.34706C7.50911 8.42505 7.46427 8.49635 7.40676 8.55674C7.34925 8.61714 7.28024 8.66541 7.20378 8.69873C7.12733 8.73204 7.04498 8.74971 6.96159 8.7507C6.79583 8.75684 6.63442 8.69687 6.51287 8.584C6.39133 8.47112 6.3196 8.31459 6.31346 8.14883C6.30733 7.98307 6.3673 7.82166 6.48017 7.70011C6.59304 7.57857 6.74958 7.50684 6.91534 7.5007V7.50195Z" fill="white"/>
<path opacity="0.5" fill-rule="evenodd" clip-rule="evenodd" d="M8.16666 8.75041C8.24873 8.74737 8.3306 8.76053 8.40759 8.78913C8.48458 8.81773 8.55519 8.86122 8.61537 8.91711C8.67555 8.973 8.72414 9.0402 8.75836 9.11486C8.79257 9.18953 8.81174 9.2702 8.81478 9.35228C8.81782 9.43436 8.80466 9.51623 8.77605 9.59322C8.74745 9.67021 8.70396 9.74081 8.64807 9.80099C8.59218 9.86118 8.52499 9.90977 8.45032 9.94398C8.37566 9.9782 8.29498 9.99737 8.21291 10.0004C8.04715 10.0065 7.88574 9.94657 7.76419 9.8337C7.64264 9.72083 7.57091 9.56429 7.56478 9.39853C7.55865 9.23277 7.61861 9.07136 7.73149 8.94982C7.84436 8.82827 8.00089 8.75654 8.16666 8.75041V8.75041ZM5.66666 8.75041C5.74873 8.74737 5.8306 8.76053 5.90759 8.78913C5.98458 8.81773 6.05519 8.86122 6.11537 8.91711C6.17555 8.973 6.22414 9.0402 6.25836 9.11486C6.29257 9.18953 6.31174 9.2702 6.31478 9.35228C6.31782 9.43436 6.30466 9.51623 6.27605 9.59322C6.24745 9.67021 6.20396 9.74081 6.14807 9.80099C6.09218 9.86118 6.02499 9.90977 5.95032 9.94398C5.87566 9.9782 5.79498 9.99737 5.71291 10.0004C5.54715 10.0065 5.38574 9.94657 5.26419 9.8337C5.14264 9.72083 5.07091 9.56429 5.06478 9.39853C5.05865 9.23277 5.11861 9.07136 5.23149 8.94982C5.34436 8.82827 5.50089 8.75654 5.66666 8.75041V8.75041ZM3.16666 8.75041C3.24873 8.74737 3.3306 8.76053 3.40759 8.78913C3.48458 8.81773 3.55519 8.86122 3.61537 8.91711C3.67555 8.973 3.72414 9.0402 3.75836 9.11486C3.79257 9.18953 3.81174 9.2702 3.81478 9.35228C3.81782 9.43436 3.80466 9.51623 3.77605 9.59322C3.74745 9.67021 3.70396 9.74081 3.64807 9.80099C3.59218 9.86118 3.52499 9.90977 3.45032 9.94398C3.37566 9.9782 3.29498 9.99737 3.21291 10.0004C3.04714 10.0065 2.88574 9.94657 2.76419 9.8337C2.64264 9.72083 2.57091 9.56429 2.56478 9.39853C2.55865 9.23277 2.61861 9.07136 2.73149 8.94982C2.84436 8.82827 3.00089 8.75654 3.16666 8.75041V8.75041ZM0.602905 8.75041C0.768666 8.74444 0.930007 8.80456 1.05144 8.91755C1.17287 9.03054 1.24444 9.18714 1.25041 9.35291C1.25637 9.51867 1.19625 9.68001 1.08326 9.80144C0.970266 9.92287 0.813666 9.99444 0.647905 10.0004C0.482145 10.0064 0.320803 9.94625 0.199373 9.83326C0.0779437 9.72027 0.00637268 9.56367 0.000405313 9.39791C-0.00556206 9.23215 0.054563 9.0708 0.167554 8.94937C0.280544 8.82794 0.437145 8.75637 0.602905 8.75041V8.75041ZM0.602905 6.25041C0.768666 6.24444 0.930007 6.30456 1.05144 6.41755C1.17287 6.53054 1.24444 6.68714 1.25041 6.85291C1.25637 7.01867 1.19625 7.18001 1.08326 7.30144C0.970266 7.42287 0.813666 7.49444 0.647905 7.50041C0.482145 7.50637 0.320803 7.44625 0.199373 7.33326C0.0779437 7.22027 0.00637268 7.06367 0.000405313 6.89791C-0.00556206 6.73215 0.054563 6.5708 0.167554 6.44937C0.280544 6.32794 0.437145 6.25637 0.602905 6.25041V6.25041ZM0.602905 3.75041C0.768666 3.74444 0.930007 3.80456 1.05144 3.91755C1.17287 4.03054 1.24444 4.18715 1.25041 4.35291C1.25637 4.51867 1.19625 4.68001 1.08326 4.80144C0.970266 4.92287 0.813666 4.99444 0.647905 5.00041C0.482145 5.00637 0.320803 4.94625 0.199373 4.83326C0.0779437 4.72027 0.00637268 4.56367 0.000405313 4.39791C-0.00556206 4.23214 0.054563 4.0708 0.167554 3.94937C0.280544 3.82794 0.437145 3.75637 0.602905 3.75041V3.75041ZM1.85291 2.50041C2.01867 2.49444 2.18001 2.55456 2.30144 2.66755C2.42287 2.78054 2.49444 2.93715 2.50041 3.10291C2.50637 3.26867 2.44625 3.43001 2.33326 3.55144C2.22027 3.67287 2.06367 3.74444 1.89791 3.75041C1.73215 3.75637 1.5708 3.69625 1.44937 3.58326C1.32794 3.47027 1.25637 3.31367 1.25041 3.14791C1.24444 2.98214 1.30456 2.8208 1.41755 2.69937C1.53054 2.57794 1.68714 2.50637 1.85291 2.50041V2.50041ZM4.35291 2.50041C4.51867 2.49444 4.68001 2.55456 4.80144 2.66755C4.92287 2.78054 4.99444 2.93715 5.00041 3.10291C5.00637 3.26867 4.94625 3.43001 4.83326 3.55144C4.72027 3.67287 4.56367 3.74444 4.39791 3.75041C4.31583 3.75336 4.23397 3.74012 4.15702 3.71144C4.08006 3.68276 4.0095 3.6392 3.94937 3.58326C3.82794 3.47027 3.75637 3.31367 3.75041 3.14791C3.74745 3.06583 3.76069 2.98397 3.78937 2.90702C3.81805 2.83006 3.86161 2.7595 3.91755 2.69937C4.03054 2.57794 4.18715 2.50637 4.35291 2.50041V2.50041ZM6.85291 2.50041C7.01867 2.49444 7.18001 2.55456 7.30144 2.66755C7.42287 2.78054 7.49444 2.93715 7.50041 3.10291C7.50637 3.26867 7.44625 3.43001 7.33326 3.55144C7.22027 3.67287 7.06367 3.74444 6.89791 3.75041C6.73215 3.75637 6.5708 3.69625 6.44937 3.58326C6.32794 3.47027 6.25637 3.31367 6.25041 3.14791C6.24444 2.98214 6.30456 2.8208 6.41755 2.69937C6.53054 2.57794 6.68714 2.50637 6.85291 2.50041V2.50041ZM9.35291 2.50041C9.51867 2.49444 9.68001 2.55456 9.80144 2.66755C9.92287 2.78054 9.99444 2.93715 10.0004 3.10291C10.0064 3.26867 9.94625 3.43001 9.83326 3.55144C9.72027 3.67287 9.56367 3.74444 9.39791 3.75041C9.23215 3.75637 9.0708 3.69625 8.94937 3.58326C8.82794 3.47027 8.75637 3.31367 8.75041 3.14791C8.74444 2.98214 8.80456 2.8208 8.91755 2.69937C9.03054 2.57794 9.18714 2.50637 9.35291 2.50041V2.50041ZM9.35291 5.00041C9.51867 4.99444 9.68001 5.05456 9.80144 5.16755C9.92287 5.28054 9.99444 5.43714 10.0004 5.60291C10.0064 5.76867 9.94625 5.93001 9.83326 6.05144C9.72027 6.17287 9.56367 6.24444 9.39791 6.25041C9.23215 6.25637 9.0708 6.19625 8.94937 6.08326C8.82794 5.97027 8.75637 5.81367 8.75041 5.64791C8.74444 5.48215 8.80456 5.3208 8.91755 5.19937C9.03054 5.07794 9.18714 5.00637 9.35291 5.00041V5.00041ZM9.35291 7.50041C9.51867 7.49444 9.68001 7.55456 9.80144 7.66755C9.92287 7.78054 9.99444 7.93714 10.0004 8.10291C10.0064 8.26867 9.94625 8.43001 9.83326 8.55144C9.72027 8.67287 9.56367 8.74444 9.39791 8.75041C9.23215 8.75637 9.0708 8.69625 8.94937 8.58326C8.82794 8.47027 8.75637 8.31367 8.75041 8.14791C8.74444 7.98215 8.80456 7.8208 8.91755 7.69937C9.03054 7.57794 9.18714 7.50637 9.35291 7.50041V7.50041Z" fill="white"/>
</g>
<defs>
<clipPath id="clip0_4650_51155">
<rect width="20" height="20" fill="white"/>
</clipPath>
</defs>
</svg>
