<svg width="20" height="20" viewBox="0 0 20 20" fill="none" xmlns="http://www.w3.org/2000/svg">
<path d="M17.5 17.5H2.5C1.83696 17.5 1.20107 17.2366 0.732233 16.7678C0.263392 16.2989 0 15.663 0 15V5C0 4.33696 0.263392 3.70107 0.732233 3.23223C1.20107 2.76339 1.83696 2.5 2.5 2.5H17.5C18.163 2.5 18.7989 2.76339 19.2678 3.23223C19.7366 3.70107 20 4.33696 20 5V15C20 15.663 19.7366 16.2989 19.2678 16.7678C18.7989 17.2366 18.163 17.5 17.5 17.5Z" fill="#43458B"/>
<path d="M16.875 2.5H17.5C18.163 2.5 18.7989 2.76339 19.2678 3.23223C19.7366 3.70107 20 4.33696 20 5L16.875 7.5H20V12.5H16.875L20 14.375V15C20 15.663 19.7366 16.2989 19.2678 16.7678C18.7989 17.2366 18.163 17.5 17.5 17.5H16.25L12.5 14.375V17.5H7.5V14.375L3.125 17.5H2.5C1.83696 17.5 1.20107 17.2366 0.732233 16.7678C0.263392 16.2989 0 15.663 0 15L3.125 12.5H0V7.5H3.125L0 5C0 4.33696 0.263392 3.70107 0.732233 3.23223C1.20107 2.76339 1.83696 2.5 2.5 2.5H3.125L7.5 5.625V2.5H12.5V5.625L16.875 2.5Z" fill="#F6F9FC"/>
<path d="M17.205 2.5H17.5C18.163 2.5 18.7989 2.76339 19.2678 3.23223C19.7366 3.70107 20 4.33696 20 5L18.75 6V5C18.75 4.66848 18.6183 4.35054 18.3839 4.11612C18.1495 3.8817 17.8315 3.75 17.5 3.75H15.125L16.875 2.5H17.205ZM18.75 7.5H20V8.75H18.75V7.5ZM0 8.75V7.5H1.25V8.75H0ZM1.25 6L0 5C0 4.33696 0.263392 3.70107 0.732233 3.23223C1.20107 2.76339 1.83696 2.5 2.5 2.5H3.125L4.875 3.75H2.5C2.16848 3.75 1.85054 3.8817 1.61612 4.11612C1.3817 4.35054 1.25 4.66848 1.25 5V6ZM7.5 3.75V2.5H12.5V3.75H7.5ZM18.75 12.5V11.25H20V12.5H18.75ZM18.75 13.625L20 14.375V15C20 15.663 19.7366 16.2989 19.2678 16.7678C18.7989 17.2366 18.163 17.5 17.5 17.5H16.25L14.75 16.25H17.5C17.8315 16.25 18.1495 16.1183 18.3839 15.8839C18.6183 15.6495 18.75 15.3315 18.75 15V13.625ZM12.5 16.25V17.5H7.5V16.25H12.5ZM4.875 16.25L3.125 17.5H2.5C1.83696 17.5 1.20107 17.2366 0.732233 16.7678C0.263392 16.2989 0 15.663 0 15L1.25 14V15C1.25 15.3315 1.3817 15.6495 1.61612 15.8839C1.85054 16.1183 2.16848 16.25 2.5 16.25H4.875V16.25ZM1.25 12.5H0V11.25H1.25V12.5Z" fill="#EAEEF3"/>
<path fill-rule="evenodd" clip-rule="evenodd" d="M11.25 11.25V17.5H8.75V11.25H0V8.75H8.75V2.5H11.25V8.75H20V11.25H11.25ZM18.4925 2.705C18.9912 2.92125 19.405 3.29375 19.6725 3.7625L15 7.5H12.5L18.4925 2.705V2.705ZM0.3275 3.7625C0.595 3.29375 1.00875 2.92125 1.50625 2.705L7.5 7.5H5L0.3275 3.7625ZM1.50625 17.295C1.00952 17.0789 0.596011 16.708 0.3275 16.2375L5 12.5H7.5L1.50625 17.295ZM19.6725 16.2375C19.404 16.708 18.9905 17.0789 18.4938 17.295L12.5 12.5H15L19.6725 16.2375Z" fill="#E25950"/>
</svg>
